<svg width="14" height="184" viewBox="0 0 14 184" fill="none" xmlns="http://www.w3.org/2000/svg">
<path d="M9.70063 137.364L3.32055 130.986M9.70063 130.986L3.32055 137.364M9.70062 52.2549L3.32055 45.8765M9.70062 45.8765L3.32055 52.2549M11.0215 176.73C11.0215 174.24 9.00005 172.219 6.51036 172.219C4.02068 172.219 1.99924 174.24 1.99924 176.73C1.99924 179.219 4.02068 181.241 6.51036 181.241C9.00005 181.241 11.0215 179.219 11.0215 176.73ZM11.0215 91.6204C11.0215 89.1308 9.00005 87.1095 6.51036 87.1095C4.02067 87.1095 1.99924 89.1308 1.99924 91.6204C1.99924 94.11 4.02067 96.1314 6.51036 96.1314C9.00005 96.1314 11.0215 94.11 11.0215 91.6204ZM11.0215 6.51099C11.0215 4.0214 9.00004 2.00003 6.51036 2.00003C4.02067 2.00003 1.99924 4.0214 1.99924 6.51099C1.99924 9.00058 4.02067 11.0219 6.51036 11.0219C9.00004 11.0219 11.0215 9.00058 11.0215 6.51099Z" stroke="#010101" stroke-width="4" stroke-miterlimit="1.5" stroke-linecap="square"/>
</svg>
