<svg width="1920" height="23" viewBox="0 0 1920 23" fill="none" xmlns="http://www.w3.org/2000/svg">
<g clip-path="url(#clip0_582_664)">
<path d="M2293.13 2.46092C2253.9 1.2785 2214.2 0.393185 2173.91 0.0840742C2145.28 -0.138005 2120.36 0.0330561 2092.96 1.19447C2064.61 2.3979 2037.5 4.04549 2010.45 5.66907C1959.07 8.75417 1909.96 11.8483 1852.22 11.17C1785.3 10.3838 1720.95 7.48472 1656.91 5.01183C1594.78 2.70101 1531.56 0.720301 1466.84 0.222124C1438.21 4.42309e-05 1413.3 0.171105 1385.9 1.33252C1357.54 2.53595 1330.43 4.18354 1303.38 5.80712C1252.01 8.89222 1202.89 11.9863 1145.15 11.3081C1025.94 9.90958 910.597 1.52459 759.776 0.360173C731.148 0.138094 706.229 0.309155 678.831 1.47057C650.473 2.674 623.365 4.32159 596.316 5.94517C544.939 9.03027 495.822 12.1244 438.086 11.4461C371.17 10.6599 306.814 7.76082 242.778 5.28793C180.652 2.97711 117.426 0.9964 52.7097 0.498222C24.0815 0.276143 -0.837006 0.447204 -28.2353 1.60862C-56.5936 2.81205 -83.7019 4.45964 -110.75 6.08322C-162.127 9.16832 -211.244 12.2624 -268.981 11.5842C-321.987 10.963 -373.374 9.01226 -424.281 7.00154L-440 9.05428C-399.842 10.5098 -353.225 12.1364 -318.137 12.9977C-299.969 13.4418 -282.42 13.6669 -264.001 13.91C-231.503 14.3422 -208.934 13.1597 -179.286 12.1574C-156.457 11.3861 -133.889 10.3297 -110.71 9.21033C-54.9737 6.51837 11.1923 3.29822 71.1686 3.8084C134.125 4.3456 167.903 5.28493 231.809 7.62577C276.926 9.27936 342.852 11.7282 388.919 12.8566C407.088 13.3008 424.637 13.5259 443.056 13.769C475.554 14.2011 498.122 13.0187 527.771 12.0163C550.599 11.2451 573.168 10.1887 596.346 9.06928C652.083 6.37732 718.249 3.15717 778.225 3.66735C907.617 4.77175 969.133 9.60647 1095.99 12.7186C1114.15 13.1627 1131.7 13.3878 1150.12 13.6309C1182.62 14.0631 1205.19 12.8806 1234.84 11.8783C1257.67 11.107 1280.23 10.0506 1303.41 8.93123C1359.15 6.23927 1425.32 3.01912 1485.29 3.5293C1548.25 4.0665 1582.03 5.00583 1645.93 7.34667C1691.05 9.00026 1756.97 11.4491 1803.04 12.5775C1821.21 13.0217 1838.76 13.2468 1857.18 13.4899C1889.68 13.922 1912.25 12.7396 1941.89 11.7372C1964.72 10.966 1987.29 9.90958 2010.47 8.79018C2066.21 6.09822 2132.37 2.87807 2192.35 3.38825C2243.94 3.82941 2275.94 4.54067 2320.98 6.07121L2293.11 2.45792L2293.13 2.46092Z" fill="#F77045"/>
</g>
<g opacity="0.35" clip-path="url(#clip1_582_664)">
<path d="M2293.13 20.5391C2253.9 21.7215 2214.2 22.6068 2173.91 22.9159C2145.28 23.138 2120.36 22.967 2092.96 21.8056C2064.61 20.6021 2037.5 18.9545 2010.45 17.331C1959.07 14.2459 1909.96 11.1518 1852.22 11.83C1785.3 12.6163 1720.95 15.5153 1656.91 17.9882C1594.78 20.2991 1531.56 22.2798 1466.84 22.778C1438.21 23 1413.3 22.829 1385.9 21.6676C1357.54 20.4641 1330.43 18.8166 1303.38 17.193C1252.01 14.1079 1202.89 11.0138 1145.15 11.692C1025.94 13.0905 910.597 21.4755 759.776 22.64C731.148 22.862 706.229 22.691 678.831 21.5296C650.473 20.3261 623.365 18.6786 596.316 17.055C544.939 13.9699 495.822 10.8758 438.086 11.554C371.17 12.3403 306.814 15.2394 242.778 17.7123C180.652 20.0231 117.426 22.0038 52.7097 22.502C24.0815 22.7241 -0.837006 22.553 -28.2353 21.3916C-56.5936 20.1882 -83.7019 18.5406 -110.75 16.917C-162.127 13.8319 -211.244 10.7378 -268.981 11.416C-321.987 12.0373 -373.374 13.988 -424.281 15.9987L-440 13.946C-399.842 12.4904 -353.225 10.8639 -318.137 10.0025C-299.969 9.55839 -282.42 9.33331 -264.001 9.09022C-231.503 8.65806 -208.934 9.84048 -179.286 10.8428C-156.457 11.6141 -133.889 12.6705 -110.71 13.7899C-54.9737 16.4818 11.1923 19.702 71.1686 19.1918C134.125 18.6546 167.903 17.7153 231.809 15.3744C276.926 13.7208 342.852 11.2719 388.919 10.1435C407.088 9.69938 424.637 9.47429 443.056 9.23121C475.554 8.79905 498.122 9.98147 527.771 10.9838C550.599 11.7551 573.168 12.8115 596.346 13.9309C652.083 16.6228 718.249 19.843 778.225 19.3328C907.617 18.2284 969.133 13.3936 1095.99 10.2815C1114.15 9.83736 1131.7 9.61228 1150.12 9.36919C1182.62 8.93704 1205.19 10.1195 1234.84 11.1218C1257.67 11.8931 1280.23 12.9495 1303.41 14.0689C1359.15 16.7608 1425.32 19.981 1485.29 19.4708C1548.25 18.9336 1582.03 17.9942 1645.93 15.6534C1691.05 13.9998 1756.97 11.5509 1803.04 10.4225C1821.21 9.97835 1838.76 9.75327 1857.18 9.51018C1889.68 9.07803 1912.25 10.2604 1941.89 11.2628C1964.72 12.0341 1987.29 13.0904 2010.47 14.2098C2066.21 16.9018 2132.37 20.1219 2192.35 19.6118C2243.94 19.1706 2275.94 18.4593 2320.98 16.9288L2293.11 20.5421L2293.13 20.5391Z" fill="#F77045"/>
</g>
<defs>
<clipPath id="clip0_582_664">
<rect width="2761" height="14" fill="white" transform="translate(-440)"/>
</clipPath>
<clipPath id="clip1_582_664">
<rect width="2761" height="14" fill="white" transform="matrix(1 -8.74228e-08 -8.74228e-08 -1 -440 23.0002)"/>
</clipPath>
</defs>
</svg>
