<svg width="28" height="35" viewBox="0 0 28 35" fill="none" xmlns="http://www.w3.org/2000/svg">
<g clip-path="url(#clip0_467_24)">
<path d="M27.1091 11.9315C26.9096 12.089 23.3872 14.1085 23.3872 18.599C23.3872 23.793 27.8693 25.6305 28.0034 25.676C27.9828 25.788 27.2914 28.1925 25.6403 30.6425C24.1681 32.7985 22.6305 34.951 20.2914 34.951C17.9523 34.951 17.3504 33.5685 14.6501 33.5685C12.0187 33.5685 11.083 34.9965 8.94349 34.9965C6.80393 34.9965 5.31106 33.0015 3.59459 30.5515C1.60639 27.6745 0 23.205 0 18.963C0 12.159 4.34791 8.5505 8.62703 8.5505C10.9007 8.5505 12.7961 10.0695 14.2236 10.0695C15.5823 10.0695 17.7012 8.4595 20.288 8.4595C21.2683 8.4595 24.7907 8.5505 27.1091 11.9315ZM19.0599 5.579C20.1297 4.2875 20.8865 2.4955 20.8865 0.7035C20.8865 0.455 20.8658 0.203 20.8211 0C19.0806 0.0665 17.0098 1.1795 15.7612 2.653C14.7808 3.787 13.8658 5.579 13.8658 7.3955C13.8658 7.6685 13.9106 7.9415 13.9312 8.029C14.0413 8.05 14.2201 8.0745 14.399 8.0745C15.9607 8.0745 17.9248 7.0105 19.0599 5.579Z" fill="black"/>
</g>
<defs>
<clipPath id="clip0_467_24">
<rect width="28" height="35" fill="white"/>
</clipPath>
</defs>
</svg>
