<svg width="18" height="18" viewBox="0 0 18 18" fill="none" xmlns="http://www.w3.org/2000/svg">
<path d="M7.28394 6.07611C6.96233 6.05258 6.72118 6.29373 6.74471 6.61535C6.76824 6.93697 7.04745 7.21618 7.36907 7.2397L9.70687 7.41073L6.49045 10.6272C6.28024 10.8374 6.30721 11.206 6.5506 11.4494C6.79399 11.6928 7.16264 11.7198 7.37285 11.5096L10.5893 8.29313L10.7603 10.6309C10.7838 10.9526 11.063 11.2318 11.3847 11.2553C11.5455 11.2671 11.6863 11.2125 11.7834 11.1155C11.8804 11.0184 11.9357 10.8769 11.9232 10.7168L11.6494 6.97415C11.6381 6.81941 11.5658 6.667 11.4494 6.5506C11.333 6.43419 11.1798 6.36112 11.0259 6.35061L7.28324 6.07682L7.28394 6.07611Z" fill="white"/>
<path d="M9 0C4.03736 0 0 4.03736 0 9C0 13.9626 4.03736 18 9 18C13.9626 18 18 13.9626 18 9C18 4.03736 13.9626 0 9 0ZM9 16.7765C4.71268 16.7765 1.22349 13.2873 1.22349 9C1.22349 4.71268 4.71122 1.22349 9 1.22349C13.2888 1.22349 16.7765 4.71268 16.7765 9C16.7765 13.2873 13.2873 16.7765 9 16.7765Z" fill="white"/>
</svg>
