<svg width="44" height="44" viewBox="0 0 44 44" fill="none" xmlns="http://www.w3.org/2000/svg">
<path d="M17.6914 15.281C16.9193 15.2245 16.3405 15.8034 16.397 16.5754C16.4534 17.3475 17.1237 18.0177 17.8957 18.0742L23.5076 18.4847L15.7866 26.2057C15.282 26.7104 15.3467 27.5953 15.931 28.1796C16.5153 28.7638 17.4002 28.8286 17.9048 28.324L25.6258 20.6029L26.0364 26.2148C26.0928 26.9869 26.7631 27.6571 27.5351 27.7136C27.9211 27.7418 28.2593 27.6108 28.4922 27.3779C28.7251 27.145 28.8578 26.8052 28.8279 26.4209L28.1706 17.4367C28.1435 17.0653 27.97 16.6994 27.6906 16.42C27.4111 16.1406 27.0433 15.9651 26.6738 15.9399L17.6897 15.2827L17.6914 15.281Z" fill="black"/>
<path d="M21.8108 0.695312C9.89795 0.695312 0.206299 10.387 0.206299 22.2998C0.206299 34.2126 9.89795 43.9042 21.8108 43.9042C33.7236 43.9042 43.4152 34.2126 43.4152 22.2998C43.4152 10.387 33.7236 0.695312 21.8108 0.695312ZM21.8108 40.9673C11.5191 40.9673 3.14327 32.5915 3.14327 22.2998C3.14327 12.0081 11.5156 3.63228 21.8108 3.63228C32.106 3.63228 40.4783 12.0081 40.4783 22.2998C40.4783 32.5915 32.1024 40.9673 21.8108 40.9673Z" fill="black"/>
</svg>
