<svg width="319" height="47" viewBox="0 0 319 47" fill="none" xmlns="http://www.w3.org/2000/svg">
<path d="M0.78025 1.2H19.9803V7.6H7.82025V19.44H17.4843V25.84H7.82025V39.6H19.9803V46H0.78025V1.2ZM36.7633 23.088L29.0192 1.2H36.4432L41.1793 15.664H41.3073L46.1713 1.2H52.8273L45.0833 23.088L53.2113 46H45.7873L40.6673 30.384H40.5393L35.2912 46H28.6352L36.7633 23.088ZM62.9552 1.2H73.3232C76.8219 1.2 79.4459 2.13866 81.1952 4.016C82.9446 5.89333 83.8193 8.64533 83.8193 12.272V16.688C83.8193 20.3147 82.9446 23.0667 81.1952 24.944C79.4459 26.8213 76.8219 27.76 73.3232 27.76H69.9952V46H62.9552V1.2ZM73.3232 21.36C74.4752 21.36 75.3286 21.04 75.8833 20.4C76.4806 19.76 76.7792 18.672 76.7792 17.136V11.824C76.7792 10.288 76.4806 9.2 75.8833 8.56C75.3286 7.92 74.4752 7.6 73.3232 7.6H69.9952V21.36H73.3232ZM94.0427 1.2H113.243V7.6H101.083V19.44H110.747V25.84H101.083V39.6H113.243V46H94.0427V1.2ZM123.693 1.2H134.125C137.751 1.2 140.397 2.05333 142.061 3.76C143.725 5.424 144.557 8.00533 144.557 11.504V14.256C144.557 18.9067 143.021 21.8507 139.949 23.088V23.216C141.655 23.728 142.85 24.7733 143.533 26.352C144.258 27.9307 144.621 30.0427 144.621 32.688V40.56C144.621 41.84 144.663 42.8853 144.749 43.696C144.834 44.464 145.047 45.232 145.389 46H138.221C137.965 45.2747 137.794 44.592 137.709 43.952C137.623 43.312 137.581 42.16 137.581 40.496V32.304C137.581 30.256 137.239 28.8267 136.557 28.016C135.917 27.2053 134.786 26.8 133.165 26.8H130.733V46H123.693V1.2ZM133.293 20.4C134.701 20.4 135.746 20.0373 136.429 19.312C137.154 18.5867 137.517 17.3707 137.517 15.664V12.208C137.517 10.5867 137.218 9.41333 136.621 8.688C136.066 7.96267 135.17 7.6 133.933 7.6H130.733V20.4H133.293ZM155.905 1.2H162.945V46H155.905V1.2ZM174.618 1.2H193.818V7.6H181.658V19.44H191.322V25.84H181.658V39.6H193.818V46H174.618V1.2ZM204.268 1.2H213.1L219.948 28.016H220.076V1.2H226.348V46H219.116L210.668 13.296H210.54V46H204.268V1.2ZM247.9 46.64C244.53 46.64 241.948 45.68 240.156 43.76C238.407 41.84 237.532 39.1307 237.532 35.632V11.568C237.532 8.06933 238.407 5.36 240.156 3.44C241.948 1.52 244.53 0.559998 247.9 0.559998C251.271 0.559998 253.831 1.52 255.58 3.44C257.372 5.36 258.268 8.06933 258.268 11.568V16.304H251.612V11.12C251.612 8.34667 250.439 6.96 248.092 6.96C245.746 6.96 244.572 8.34667 244.572 11.12V36.144C244.572 38.8747 245.746 40.24 248.092 40.24C250.439 40.24 251.612 38.8747 251.612 36.144V29.296H258.268V35.632C258.268 39.1307 257.372 41.84 255.58 43.76C253.831 45.68 251.271 46.64 247.9 46.64ZM268.88 1.2H288.08V7.6H275.92V19.44H285.584V25.84H275.92V39.6H288.08V46H268.88V1.2ZM307.807 46.64C304.394 46.64 301.813 45.68 300.063 43.76C298.314 41.7973 297.439 39.0027 297.439 35.376V32.816H304.095V35.888C304.095 38.7893 305.311 40.24 307.743 40.24C308.938 40.24 309.834 39.8987 310.431 39.216C311.071 38.4907 311.391 37.3387 311.391 35.76C311.391 33.8827 310.965 32.24 310.111 30.832C309.258 29.3813 307.679 27.6533 305.375 25.648C302.474 23.088 300.447 20.784 299.295 18.736C298.143 16.6453 297.567 14.2987 297.567 11.696C297.567 8.15467 298.463 5.424 300.255 3.504C302.047 1.54133 304.65 0.559998 308.063 0.559998C311.434 0.559998 313.973 1.54133 315.679 3.504C317.429 5.424 318.303 8.19733 318.303 11.824V13.68H311.647V11.376C311.647 9.84 311.349 8.73066 310.751 8.048C310.154 7.32266 309.279 6.96 308.127 6.96C305.781 6.96 304.607 8.38933 304.607 11.248C304.607 12.8693 305.034 14.384 305.887 15.792C306.783 17.2 308.383 18.9067 310.687 20.912C313.631 23.472 315.658 25.7973 316.767 27.888C317.877 29.9787 318.431 32.432 318.431 35.248C318.431 38.9173 317.514 41.7333 315.679 43.696C313.887 45.6587 311.263 46.64 307.807 46.64Z" fill="url(#paint0_linear_67_360)"/>
<defs>
<linearGradient id="paint0_linear_67_360" x1="-2" y1="26.5" x2="320" y2="26.5" gradientUnits="userSpaceOnUse">
<stop stop-color="#D30707"/>
<stop offset="1" stop-color="#CEC2B1"/>
</linearGradient>
</defs>
</svg>
