<svg width="25" height="24" viewBox="0 0 25 24" fill="none" xmlns="http://www.w3.org/2000/svg">
<path d="M24.2672 11.9651C24.2672 5.3558 18.9094 0 12.302 0C5.69467 0 0.334961 5.35775 0.334961 11.9651C0.334961 17.9379 4.71059 22.8876 10.4315 23.7858V15.425H7.39337V11.9671H10.4315V9.33116C10.4315 6.33207 12.2181 4.67632 14.9516 4.67632C16.2598 4.67632 17.6305 4.91062 17.6305 4.91062V7.85505H16.1212C14.6353 7.85505 14.1706 8.77665 14.1706 9.72363V11.969H17.4899L16.9588 15.427H14.1706V23.7877C19.8915 22.8896 24.2672 17.9399 24.2672 11.9671V11.9651Z" fill="black"/>
</svg>
