<svg width="24" height="24" viewBox="0 0 24 24" fill="none" xmlns="http://www.w3.org/2000/svg">
<path d="M11.9661 2.15644C15.161 2.15644 15.5382 2.16781 16.8016 2.22689C17.9673 2.27915 18.6013 2.47457 19.024 2.63818C19.583 2.85632 19.9806 3.11537 20.3987 3.53348C20.8168 3.95159 21.0759 4.35152 21.294 4.90824C21.4576 5.33089 21.6531 5.9626 21.7053 7.13058C21.7621 8.39173 21.7758 8.77121 21.7758 11.9661C21.7758 15.161 21.7644 15.5382 21.7053 16.8016C21.6531 17.9673 21.4576 18.6013 21.294 19.024C21.0759 19.583 20.8168 19.9806 20.3987 20.3987C19.9806 20.8168 19.5807 21.0759 19.024 21.294C18.6013 21.4576 17.9696 21.6531 16.8016 21.7053C15.5405 21.7621 15.161 21.7758 11.9661 21.7758C8.77121 21.7758 8.39173 21.7644 7.13058 21.7053C5.96488 21.6531 5.33089 21.4576 4.90824 21.294C4.34925 21.0759 3.95159 20.8168 3.53348 20.3987C3.11537 19.9806 2.85632 19.5807 2.63818 19.024C2.47457 18.6013 2.27915 17.9696 2.22689 16.8016C2.17008 15.5405 2.15644 15.161 2.15644 11.9661C2.15644 8.77121 2.16781 8.394 2.22689 7.13058C2.27915 5.96488 2.47457 5.33089 2.63818 4.90824C2.85632 4.34925 3.11537 3.95159 3.53348 3.53348C3.95159 3.11537 4.35152 2.85632 4.90824 2.63818C5.33089 2.47457 5.9626 2.27915 7.13058 2.22689C8.39173 2.17008 8.77121 2.15644 11.9661 2.15644ZM11.9661 0C8.71667 0 8.30992 0.013634 7.03287 0.0727147C5.76037 0.131795 4.89006 0.334033 4.12883 0.629436C3.3426 0.936201 2.67454 1.34522 2.00874 2.00874C1.34295 2.67454 0.933929 3.34033 0.629436 4.12883C0.334033 4.89006 0.131795 5.76037 0.0727146 7.03287C0.0136339 8.30992 0 8.71667 0 11.9661C0 15.2155 0.0136339 15.6223 0.0727146 16.8993C0.131795 18.1719 0.334033 19.0422 0.629436 19.8034C0.936202 20.5896 1.34522 21.2577 2.00874 21.9235C2.67454 22.5893 3.34033 22.9983 4.12883 23.3028C4.89006 23.5982 5.76037 23.8004 7.03287 23.8595C8.30992 23.9186 8.71667 23.9322 11.9661 23.9322C15.2155 23.9322 15.6223 23.9186 16.8993 23.8595C18.1719 23.8004 19.0422 23.5982 19.8034 23.3028C20.5896 22.996 21.2577 22.587 21.9235 21.9235C22.5893 21.2577 22.9983 20.5919 23.3028 19.8034C23.5982 19.0422 23.8004 18.1719 23.8595 16.8993C23.9186 15.6223 23.9322 15.2155 23.9322 11.9661C23.9322 8.71667 23.9186 8.30992 23.8595 7.03287C23.8004 5.76037 23.5982 4.89006 23.3028 4.12883C22.996 3.3426 22.587 2.67454 21.9235 2.00874C21.2577 1.34295 20.5919 0.933929 19.8034 0.629436C19.0422 0.334033 18.1719 0.131795 16.8993 0.0727147C15.6223 0.013634 15.2155 0 11.9661 0Z" fill="white"/>
<path d="M11.9661 5.82178C8.57351 5.82178 5.82172 8.57357 5.82172 11.9662C5.82172 15.3588 8.57351 18.1106 11.9661 18.1106C15.3587 18.1106 18.1105 15.3588 18.1105 11.9662C18.1105 8.57357 15.3587 5.82178 11.9661 5.82178ZM11.9661 15.9541C9.76421 15.9541 7.97816 14.1681 7.97816 11.9662C7.97816 9.76428 9.76421 7.97822 11.9661 7.97822C14.168 7.97822 15.9541 9.76428 15.9541 11.9662C15.9541 14.1681 14.168 15.9541 11.9661 15.9541Z" fill="white"/>
<path d="M19.7898 5.57869C19.7898 6.37174 19.1467 7.01481 18.3537 7.01481C17.5606 7.01481 16.9175 6.37174 16.9175 5.57869C16.9175 4.78565 17.5606 4.14258 18.3537 4.14258C19.1467 4.14258 19.7898 4.78565 19.7898 5.57869Z" fill="white"/>
</svg>
