<svg width="42" height="42" viewBox="0 0 42 42" fill="none" xmlns="http://www.w3.org/2000/svg">
<g filter="url(#filter0_d_338_1594)">
<path fill-rule="evenodd" clip-rule="evenodd" d="M21 1.7C29.4502 1.7 36.3 8.5498 36.3 17C36.3 25.4502 29.4502 32.3 21 32.3C12.5498 32.3 5.7 25.4502 5.7 17C5.7 8.5498 12.5498 1.7 21 1.7ZM21 0C30.3885 0 38 7.61148 38 17C38 26.3885 30.3885 34 21 34C11.6115 34 4 26.3892 4 17C4 7.61082 11.6108 0 21 0Z" fill="white"/>
<path fill-rule="evenodd" clip-rule="evenodd" d="M26.3621 17.0002L18.5447 22.2117V11.7879L26.3621 16.9995V17.0002ZM27.9419 17.9903C28.6484 17.5195 28.6484 16.4809 27.9419 16.01L18.6948 9.84556C17.9039 9.31829 16.8447 9.8854 16.8447 10.8357V23.1653C16.8447 24.1156 17.9039 24.6827 18.6948 24.1554L27.9419 17.9909V17.9903Z" fill="white"/>
</g>
<defs>
<filter id="filter0_d_338_1594" x="0" y="0" width="42" height="42" filterUnits="userSpaceOnUse" color-interpolation-filters="sRGB">
<feFlood flood-opacity="0" result="BackgroundImageFix"/>
<feColorMatrix in="SourceAlpha" type="matrix" values="0 0 0 0 0 0 0 0 0 0 0 0 0 0 0 0 0 0 127 0" result="hardAlpha"/>
<feOffset dy="4"/>
<feGaussianBlur stdDeviation="2"/>
<feComposite in2="hardAlpha" operator="out"/>
<feColorMatrix type="matrix" values="0 0 0 0 0 0 0 0 0 0 0 0 0 0 0 0 0 0 0.25 0"/>
<feBlend mode="normal" in2="BackgroundImageFix" result="effect1_dropShadow_338_1594"/>
<feBlend mode="normal" in="SourceGraphic" in2="effect1_dropShadow_338_1594" result="shape"/>
</filter>
</defs>
</svg>
