<svg width="34" height="34" viewBox="0 0 34 34" fill="none" xmlns="http://www.w3.org/2000/svg">
<path fill-rule="evenodd" clip-rule="evenodd" d="M17 1.7C25.4502 1.7 32.3 8.5498 32.3 17C32.3 25.4502 25.4502 32.3 17 32.3C8.5498 32.3 1.7 25.4502 1.7 17C1.7 8.5498 8.5498 1.7 17 1.7ZM17 0C26.3885 0 34 7.61148 34 17C34 26.3885 26.3885 34 17 34C7.61148 34 0 26.3892 0 17C0 7.61082 7.61082 0 17 0Z" fill="black"/>
<path fill-rule="evenodd" clip-rule="evenodd" d="M22.3621 17.0001L14.5447 22.2117V11.7879L22.3621 16.9994V17.0001ZM23.9419 17.9902C24.6484 17.5194 24.6484 16.4808 23.9419 16.01L14.6948 9.8455C13.9039 9.31823 12.8447 9.88534 12.8447 10.8356V23.1653C12.8447 24.1155 13.9039 24.6826 14.6948 24.1554L23.9419 17.9909V17.9902Z" fill="black"/>
</svg>
