<svg width="35" height="35" viewBox="0 0 35 35" fill="none" xmlns="http://www.w3.org/2000/svg">
<path d="M17.189 0C7.6969 0 0 7.67388 0 17.1376C0 26.6013 7.6969 34.2752 17.189 34.2752C26.6811 34.2752 34.378 26.6013 34.378 17.1376C34.378 7.67388 26.6811 0 17.189 0ZM25.071 24.7192C24.7625 25.2254 24.1033 25.382 23.5984 25.0744C19.562 22.6133 14.4822 22.0596 8.49632 23.4216C7.91849 23.553 7.34628 23.1922 7.21444 22.6189C7.08261 22.0428 7.44165 21.4723 8.01947 21.3409C14.5663 19.8475 20.1847 20.4907 24.7148 23.251C25.2197 23.5586 25.3796 24.2158 25.071 24.7192ZM27.1748 20.0517C26.7849 20.6809 25.9602 20.8767 25.3319 20.4907C20.7121 17.6606 13.6687 16.8384 8.2018 18.4939C7.49214 18.7065 6.7432 18.3094 6.53002 17.6046C6.31684 16.8971 6.71515 16.1532 7.42482 15.9378C13.6687 14.0501 21.4301 14.9646 26.7344 18.2143C27.3655 18.6002 27.5619 19.4224 27.1748 20.0517ZM27.3571 15.194C21.8172 11.9135 12.6758 11.6115 7.38555 13.2112C6.53563 13.4684 5.63804 12.9902 5.37998 12.1429C5.12192 11.2955 5.60157 10.4006 6.45148 10.1433C12.5243 8.30592 22.6167 8.66108 28.9952 12.4365C29.7582 12.8895 30.0106 13.8712 29.5562 14.6318C29.1018 15.3925 28.1144 15.6442 27.3543 15.1912L27.3571 15.194Z" fill="#2FA348"/>
<path d="M25.0713 24.7194C24.7628 25.2256 24.1036 25.3822 23.5987 25.0745C19.5623 22.6135 14.4825 22.0598 8.49664 23.4217C7.91881 23.5532 7.34659 23.1924 7.21475 22.6191C7.08292 22.043 7.44196 21.4725 8.01979 21.3411C14.5666 19.8477 20.185 20.4909 24.7151 23.2511C25.22 23.5588 25.3799 24.216 25.0713 24.7194Z" fill="white"/>
<path d="M27.1747 20.0518C26.7848 20.681 25.9601 20.8768 25.3318 20.4908C20.712 17.6607 13.6686 16.8385 8.20169 18.4941C7.49203 18.7066 6.74309 18.3095 6.52991 17.6047C6.31673 16.8972 6.71504 16.1533 7.42471 15.938C13.6686 14.0503 21.43 14.9647 26.7343 18.2144C27.3654 18.6003 27.5617 19.4225 27.1747 20.0518Z" fill="white"/>
<path d="M27.3575 15.194C21.8176 11.9136 12.6761 11.6116 7.38593 13.2112C6.53601 13.4685 5.63842 12.9903 5.38036 12.1429C5.1223 11.2956 5.60195 10.4006 6.45186 10.1434C12.5247 8.30599 22.617 8.66115 28.9956 12.4366C29.7586 12.8896 30.011 13.8712 29.5566 14.6319C29.1022 15.3926 28.1148 15.6443 27.3547 15.1912L27.3575 15.194Z" fill="white"/>
</svg>
