<svg width="25" height="24" viewBox="0 0 25 24" fill="none" xmlns="http://www.w3.org/2000/svg">
<path d="M12.3011 0C5.69315 0 0.334961 5.35819 0.334961 11.9661C0.334961 18.574 5.69315 23.9322 12.3011 23.9322C18.909 23.9322 24.2672 18.574 24.2672 11.9661C24.2672 5.35819 18.909 0 12.3011 0ZM17.7881 17.2599C17.5733 17.6133 17.1145 17.7226 16.763 17.5079C13.953 15.7895 10.4167 15.4028 6.24967 16.3538C5.84742 16.4456 5.44907 16.1937 5.35729 15.7934C5.26551 15.3911 5.51546 14.9928 5.91771 14.901C10.4753 13.8583 14.3865 14.3074 17.5401 16.2347C17.8916 16.4495 18.0029 16.9084 17.7881 17.2599ZM19.2527 14.0008C18.9812 14.4402 18.4071 14.5769 17.9697 14.3074C14.7537 12.3313 9.85044 11.7572 6.04464 12.9132C5.55061 13.0616 5.02924 12.7843 4.88083 12.2922C4.73243 11.7982 5.00971 11.2788 5.50374 11.1284C9.85044 9.81033 15.2535 10.4489 18.9461 12.7179C19.3854 12.9874 19.5221 13.5615 19.2527 14.0008ZM19.3796 10.609C15.523 8.31848 9.15918 8.10759 5.4764 9.22453C4.88474 9.40417 4.25988 9.07026 4.08023 8.4786C3.90058 7.88693 4.23449 7.26207 4.82616 7.08242C9.05374 5.7995 16.0795 6.04749 20.52 8.68363C21.0511 8.99997 21.2268 9.68536 20.9105 10.2165C20.5942 10.7476 19.9068 10.9234 19.3776 10.607L19.3796 10.609Z" fill="white"/>
<path d="M17.7881 17.2598C17.5733 17.6133 17.1145 17.7226 16.763 17.5078C13.953 15.7894 10.4167 15.4028 6.24967 16.3538C5.84742 16.4455 5.44907 16.1936 5.35729 15.7933C5.26551 15.3911 5.51546 14.9927 5.91771 14.901C10.4753 13.8582 14.3865 14.3073 17.5401 16.2347C17.8916 16.4494 18.0029 16.9083 17.7881 17.2598Z" fill="#1E1E1E"/>
<path d="M19.2526 14.0008C18.9812 14.4402 18.4071 14.5769 17.9697 14.3074C14.7536 12.3313 9.85041 11.7572 6.04461 12.9132C5.55058 13.0616 5.02921 12.7843 4.88081 12.2922C4.7324 11.7982 5.00969 11.2788 5.50372 11.1284C9.85041 9.81035 15.2535 10.4489 18.9461 12.7179C19.3854 12.9874 19.5221 13.5615 19.2526 14.0008Z" fill="#1E1E1E"/>
<path d="M19.3796 10.609C15.523 8.31844 9.15917 8.10755 5.47639 9.22449C4.88472 9.40414 4.25986 9.07023 4.08021 8.47856C3.90057 7.8869 4.23448 7.26203 4.82614 7.08239C9.05373 5.79947 16.0795 6.04746 20.5199 8.68359C21.0511 8.99993 21.2268 9.68533 20.9105 10.2165C20.5941 10.7476 19.9068 10.9233 19.3776 10.607L19.3796 10.609Z" fill="#1E1E1E"/>
</svg>
