<svg width="26" height="18" viewBox="0 0 26 18" fill="none" xmlns="http://www.w3.org/2000/svg">
<path d="M24.8129 2.81119C24.5253 1.70559 23.6789 0.832867 22.6021 0.537063C20.6523 -4.76837e-07 12.835 0 12.835 0C12.835 0 5.01762 -4.76837e-07 3.06787 0.537063C1.99306 0.832867 1.14464 1.7035 0.857069 2.81119C0.334961 4.81678 0.334961 9 0.334961 9C0.334961 9 0.334961 13.1832 0.857069 15.1888C1.14464 16.2944 1.99102 17.1671 3.06787 17.4629C5.01762 18 12.835 18 12.835 18C12.835 18 20.6523 18 22.6021 17.4629C23.6769 17.1671 24.5253 16.2965 24.8129 15.1888C25.335 13.1832 25.335 9 25.335 9C25.335 9 25.335 4.81678 24.8129 2.81119ZM10.3386 12.8559V5.14195L16.8324 9L10.3386 12.8559Z" fill="black"/>
</svg>
