<?xml version="1.0" encoding="UTF-8"?>
<svg id="Capa_1" xmlns="http://www.w3.org/2000/svg" version="1.1" viewBox="0 0 512 512">
  <!-- Generator: Adobe Illustrator 29.1.0, SVG Export Plug-In . SVG Version: 2.1.0 Build 142)  -->
  <path d="M176,355.8c-9,0-16.2,7.3-16.2,16.2v40c0,9,7.3,16.2,16.2,16.2s16.2-7.3,16.2-16.2v-40c0-9-7.3-16.2-16.2-16.2Z"/>
  <path d="M256,315.8c-9,0-16.2,7.3-16.2,16.2v120c0,9,7.3,16.2,16.2,16.2s16.2-7.3,16.2-16.2v-120c0-9-7.3-16.2-16.2-16.2Z"/>
  <path d="M336,355.8c-9,0-16.2,7.3-16.2,16.2v40c0,9,7.3,16.2,16.2,16.2s16.2-7.3,16.2-16.2v-40c0-9-7.3-16.2-16.2-16.2Z"/>
  <path d="M60,275.8c-31,0-56.2,25.2-56.2,56.2v120c0,31,25.2,56.2,56.2,56.2s56.2-25.2,56.2-56.2v-120c0-31-25.2-56.2-56.2-56.2ZM83.8,452c0,13.1-10.7,23.8-23.8,23.8s-23.8-10.7-23.8-23.8v-120c0-13.1,10.7-23.8,23.8-23.8s23.8,10.7,23.8,23.8v120Z"/>
  <path d="M452,275.8c-31,0-56.2,25.2-56.2,56.2v120c0,31,25.2,56.2,56.2,56.2s56.2-25.2,56.2-56.2v-120c0-31-25.2-56.2-56.2-56.2ZM475.8,452c0,13.1-10.7,23.8-23.8,23.8s-23.8-10.7-23.8-23.8v-120c0-13.1,10.7-23.8,23.8-23.8s23.8,10.7,23.8,23.8v120Z"/>
  <path d="M256,36.2c100.8,0,179.8,80.7,179.8,183.8s7.3,16.2,16.2,16.2,16.2-7.3,16.2-16.2c0-121.3-93.2-216.2-212.2-216.2S43.8,98.7,43.8,220s7.3,16.2,16.2,16.2,16.2-7.3,16.2-16.2c0-103,79-183.8,179.8-183.8Z"/>
</svg>