<svg width="53" height="53" viewBox="0 0 53 53" fill="none" xmlns="http://www.w3.org/2000/svg">
<g clip-path="url(#clip0_473_329)">
<path d="M43.1694 31.8028C42.2375 35.4322 40.0898 38.7195 37.1221 41.0595C34.4976 43.1287 31.4257 44.3615 28.1562 44.6726V49.6875H35.6416C36.5562 49.6875 37.2978 50.429 37.2978 51.3438C37.2978 52.2585 36.5562 53 35.6416 53H17.3584C16.4438 53 15.7022 52.2585 15.7022 51.3438C15.7022 50.429 16.4438 49.6875 17.3584 49.6875H24.8438V44.6726C21.5743 44.3615 18.5024 43.1287 15.878 41.0595C12.9103 38.7196 10.7625 35.4322 9.83057 31.8028C9.60304 30.9168 10.1369 30.0143 11.0229 29.7866C11.9092 29.5593 12.8115 30.0929 13.039 30.9789C14.6205 37.1378 20.1559 41.4392 26.5 41.4392C32.8441 41.4392 38.3795 37.1377 39.9611 30.9788C40.1885 30.0928 41.0911 29.5588 41.9772 29.7865C42.8631 30.0141 43.3969 30.9168 43.1694 31.8028ZM15.0915 28.1042V10.85C15.0915 4.86731 19.9588 0 25.9414 0H27.0584C33.0412 0 37.9085 4.86731 37.9085 10.85V28.1042C37.9085 34.0869 33.0411 38.9541 27.0585 38.9541H25.9415C19.9588 38.9542 15.0915 34.0869 15.0915 28.1042ZM18.4106 10.5907H20.8451C21.7598 10.5907 22.5014 11.3323 22.5014 12.2469C22.5014 13.1616 21.7598 13.9032 20.8451 13.9032H18.404V17.8208H20.8451C21.7598 17.8208 22.5014 18.5624 22.5014 19.4771C22.5014 20.3918 21.7598 21.1333 20.8451 21.1333H18.404V25.0511H20.8451C21.7598 25.0511 22.5014 25.7927 22.5014 26.7073C22.5014 27.6221 21.7598 28.3636 20.8451 28.3636H18.4106C18.548 32.3999 21.8722 35.6417 25.9414 35.6417H27.0584C31.1276 35.6417 34.4519 32.4 34.5893 28.3636H32.1548C31.2401 28.3636 30.4985 27.6221 30.4985 26.7073C30.4985 25.7927 31.2401 25.0511 32.1548 25.0511H34.5959V21.1333H32.1548C31.2401 21.1333 30.4985 20.3918 30.4985 19.4771C30.4985 18.5624 31.2401 17.8208 32.1548 17.8208H34.5959V13.9032H32.1548C31.2401 13.9032 30.4985 13.1616 30.4985 12.2469C30.4985 11.3323 31.2401 10.5907 32.1548 10.5907H34.5893C34.452 6.5543 31.1277 3.3125 27.0585 3.3125H25.9415C21.8722 3.3125 18.548 6.5543 18.4106 10.5907ZM44.6783 10.91C44.0315 10.2632 42.9828 10.2632 42.336 10.91C41.6892 11.5568 41.6892 12.6055 42.336 13.2523C44.4322 15.3486 44.4322 18.7594 42.336 20.8557C41.6892 21.5025 41.6892 22.5512 42.336 23.198C42.6594 23.5214 43.0833 23.6831 43.5071 23.6831C43.9309 23.6831 44.3548 23.5214 44.6782 23.198C48.066 19.8102 48.066 14.2979 44.6783 10.91ZM48.7631 6.8253C48.1163 6.17843 47.0676 6.17843 46.4209 6.8253C45.774 7.47207 45.774 8.52078 46.4209 9.16755C48.5274 11.2741 49.6875 14.0749 49.6875 17.0541C49.6875 20.0333 48.5274 22.834 46.4209 24.9405C45.774 25.5873 45.774 26.6359 46.4209 27.2828C46.7443 27.6062 47.168 27.7679 47.5919 27.7679C48.0157 27.7679 48.4397 27.6061 48.763 27.2828C51.4952 24.5506 52.9999 20.9179 52.9999 17.0541C53 13.1901 51.4953 9.55749 48.7631 6.8253ZM10.664 20.8557C8.56778 18.7594 8.56778 15.3486 10.664 13.2523C11.3108 12.6055 11.3108 11.5568 10.664 10.91C10.0172 10.2632 8.96849 10.2632 8.32172 10.91C4.93387 14.2979 4.93387 19.8102 8.32172 23.198C8.64511 23.5214 9.069 23.6831 9.4928 23.6831C9.91659 23.6831 10.3405 23.5214 10.6639 23.198C11.3108 22.5512 11.3108 21.5025 10.664 20.8557ZM3.3125 17.054C3.3125 14.0749 4.4726 11.2741 6.57914 9.16745C7.22601 8.52068 7.22601 7.47196 6.57914 6.8252C5.93238 6.17833 4.88366 6.17833 4.23689 6.8252C1.5047 9.55749 0 13.1901 0 17.054C0 20.9179 1.5047 24.5505 4.23689 27.2827C4.56028 27.6061 4.98417 27.7678 5.40797 27.7678C5.83176 27.7678 6.25566 27.6061 6.57904 27.2827C7.22591 26.6358 7.22591 25.5872 6.57904 24.9404C4.4726 22.8339 3.3125 20.0331 3.3125 17.054Z" fill="black"/>
</g>
<defs>
<clipPath id="clip0_473_329">
<rect width="53" height="53" fill="white"/>
</clipPath>
</defs>
</svg>
