<svg width="54" height="54" viewBox="0 0 54 54" fill="none" xmlns="http://www.w3.org/2000/svg">
<path d="M20.0391 0C9.86133 0 1.58203 8.2793 1.58203 18.457V43.4531C1.58203 49.2645 6.31758 54 12.1289 54C17.9402 54 22.6758 49.2645 22.6758 43.4531C22.6758 37.6418 23.298 41.0379 24.3422 40.3418L28.1391 37.8105C34.6254 33.4863 38.4961 26.2512 38.4961 18.457C38.4961 10.6629 30.2168 0 20.0391 0ZM26.3883 35.1738L22.5914 37.7051C20.6719 38.9918 19.5223 41.1328 19.5223 43.4531C19.5223 47.5242 16.2105 50.8359 12.1395 50.8359C8.06836 50.8359 4.75664 47.5242 4.75664 43.4531V18.457C4.75664 10.0195 11.6121 3.16406 20.0496 3.16406C28.4871 3.16406 35.3426 10.0195 35.3426 18.457C35.3426 26.8945 31.9992 31.4402 26.3988 35.1738H26.3883Z" fill="black"/>
<path d="M21.6326 8.55352C18.7216 8.11055 15.779 8.9543 13.5642 10.8633C11.3493 12.7723 10.0732 15.5355 10.0732 18.4465L9.9888 24.9645C9.96771 26.5359 10.59 28.0758 11.6974 29.1832L11.8767 29.3625C12.3618 29.8477 12.6255 30.4805 12.615 31.166C12.615 31.8305 12.3408 32.4422 11.8661 32.9063L11.8029 32.9695C10.6954 34.0453 10.0626 35.543 10.0626 37.0934V38.5066C10.0626 41.1223 12.1931 43.2527 14.8087 43.2527C17.4243 43.2527 16.3908 42.5461 16.3908 41.6707C16.3908 40.7953 15.6841 40.0887 14.8087 40.0887C13.9333 40.0887 13.2267 39.382 13.2267 38.5066V37.0934C13.2267 36.3973 13.5115 35.7223 14.0072 35.2371L14.0599 35.1844C15.1462 34.1297 15.7579 32.7164 15.7685 31.1977C15.779 29.6684 15.1884 28.2234 14.1021 27.1371L13.9228 26.9578C13.406 26.441 13.1318 25.7555 13.1318 25.0172L13.1845 20.8723L13.2161 20.5664C13.2161 19.1109 14.3974 17.9297 15.8529 17.9297C17.3083 17.9297 18.4896 19.1109 18.4896 20.5664C18.4896 22.0219 19.1962 22.1484 20.0716 22.1484C20.947 22.1484 21.6536 21.4418 21.6536 20.5664C21.6536 17.3707 19.0486 14.7656 15.8529 14.7656C12.6572 14.7656 14.6822 14.8605 14.1443 15.0188C14.524 14.3648 15.0197 13.7637 15.6103 13.2574C17.1501 11.9391 19.1118 11.3695 21.1474 11.6754C24.7755 12.2238 27.2962 15.7465 26.8638 19.7016C26.4947 23.1398 24.6279 26.2195 21.738 28.1496C21.0103 28.6348 20.8099 29.6156 21.295 30.3434C21.7802 31.0711 22.7611 31.2715 23.4888 30.7863C27.1591 28.3395 29.5322 24.4266 30.0068 20.0391C30.6079 14.3965 26.9271 9.34453 21.6115 8.54297L21.6326 8.55352Z" fill="black"/>
<path d="M49.5378 18.8684C46.089 22.3172 46.089 27.9387 49.5378 31.3875C49.8647 31.7145 50.2972 31.8832 50.7296 31.8832C51.162 31.8832 51.5944 31.7145 51.9214 31.3875C52.5753 30.7336 52.5753 29.6578 51.9214 29.0039C49.7909 26.8629 49.7909 23.393 51.9214 21.252C52.5753 20.598 52.5753 19.5223 51.9214 18.8684C51.2675 18.2145 50.1917 18.2145 49.5378 18.8684Z" fill="black"/>
<path d="M45.384 14.7129C42.5996 17.4973 41.0703 21.1992 41.0703 25.1332C41.0703 29.0672 42.5996 32.7691 45.384 35.5535C45.7109 35.8805 46.1434 36.0492 46.5758 36.0492C47.0082 36.0492 47.4406 35.8805 47.7676 35.5535C48.4215 34.8996 48.4215 33.8238 47.7676 33.1699C45.616 31.0289 44.4348 28.1707 44.4348 25.1332C44.4348 22.0957 45.616 19.248 47.7676 17.0965C48.4215 16.4426 48.4215 15.3668 47.7676 14.7129C47.1137 14.059 46.0379 14.059 45.384 14.7129Z" fill="black"/>
</svg>
