<svg width="55" height="55" viewBox="0 0 55 55" fill="none" xmlns="http://www.w3.org/2000/svg">
<g clip-path="url(#clip0_473_331)">
<path d="M33.8972 19.9432H32.662C32.4106 19.2189 32.058 18.5338 31.6147 17.9082H33.8972C34.353 17.9082 34.7902 17.7271 35.1125 17.4048C35.4348 17.0825 35.6159 16.6453 35.6159 16.1895C35.6159 15.7336 35.4348 15.2965 35.1125 14.9741C34.7902 14.6518 34.353 14.4707 33.8972 14.4707H25.1602C25.0972 14.4707 25.0364 14.4616 24.9723 14.4616H20.4268C19.9709 14.4616 19.5337 14.6426 19.2114 14.965C18.8891 15.2873 18.708 15.7245 18.708 16.1803C18.708 16.6362 18.8891 17.0733 19.2114 17.3957C19.5337 17.718 19.9709 17.8991 20.4268 17.8991H24.9723C25.7359 17.8991 26.488 18.0853 27.1634 18.4415C27.8389 18.7977 28.4173 19.3131 28.8486 19.9432H20.4978C20.042 19.9432 19.6048 20.1243 19.2825 20.4466C18.9601 20.769 18.779 21.2061 18.779 21.662C18.779 22.1178 18.9601 22.555 19.2825 22.8773C19.6048 23.1996 20.042 23.3807 20.4978 23.3807H29.6014C29.4192 24.4776 28.8542 25.4745 28.0067 26.1944C27.1593 26.9143 26.0842 27.3107 24.9723 27.3132H20.4268C20.0908 27.3134 19.7622 27.412 19.4817 27.5968C19.2011 27.7817 18.9809 28.0447 18.8483 28.3534C18.7156 28.6621 18.6764 29.0029 18.7353 29.3337C18.7943 29.6644 18.9489 29.9707 19.1801 30.2145L28.4728 40.0114C28.6265 40.1812 28.8127 40.3186 29.0203 40.4155C29.2279 40.5124 29.4527 40.5668 29.6817 40.5755C29.9106 40.5843 30.1389 40.5471 30.3533 40.4663C30.5677 40.3855 30.7638 40.2627 30.93 40.105C31.0962 39.9474 31.2292 39.7581 31.3212 39.5483C31.4132 39.3385 31.4623 39.1124 31.4657 38.8833C31.4691 38.6542 31.4266 38.4268 31.3408 38.2144C31.255 38.002 31.1276 37.8088 30.9661 37.6464L24.4257 30.7507H24.9723C26.9974 30.7482 28.9492 29.9922 30.4477 28.6299C31.9462 27.2676 32.8841 25.3965 33.0791 23.3807H33.8972C34.353 23.3807 34.7902 23.1996 35.1125 22.8773C35.4348 22.555 35.6159 22.1178 35.6159 21.662C35.6159 21.2061 35.4348 20.769 35.1125 20.4466C34.7902 20.1243 34.353 19.9432 33.8972 19.9432Z" fill="black"/>
<path d="M27.5 55C23.1603 54.9995 18.8823 53.972 15.0158 52.0015C11.1493 50.0309 7.80404 47.1732 5.25354 43.6621C2.70304 40.151 1.01971 36.0861 0.341167 31.7998C-0.337375 27.5135 0.00813884 23.1274 1.34946 19.0002C2.69078 14.873 4.98983 11.1219 8.05864 8.05343C11.1274 4.98498 14.8789 2.68637 19.0062 1.34554C23.1336 0.00469706 27.5197 -0.340303 31.8059 0.338741C36.0922 1.01778 40.1569 2.70159 43.6677 5.2525C44.0363 5.52069 44.2833 5.92433 44.3543 6.37462C44.4253 6.82491 44.3146 7.28497 44.0464 7.6536C43.7782 8.02222 43.3745 8.26921 42.9243 8.34023C42.474 8.41125 42.0139 8.30048 41.6453 8.0323C36.8635 4.56249 30.9712 2.9758 25.0936 3.5753C19.2161 4.1748 13.7654 6.91847 9.78273 11.2822C5.80001 15.646 3.56441 21.324 3.50296 27.2317C3.4415 33.1394 5.5585 38.8627 9.44958 43.3084C13.3407 47.7541 18.7331 50.6105 24.5969 51.3322C30.4606 52.0538 36.3847 50.59 41.2376 47.2204C46.0905 43.8509 49.532 38.8116 50.9048 33.0653C52.2776 27.319 51.4854 21.2684 48.6795 16.0692C48.479 15.6697 48.442 15.2077 48.5764 14.7814C48.7108 14.355 49.0061 13.9978 49.3995 13.7856C49.7929 13.5733 50.2535 13.5226 50.6836 13.6443C51.1138 13.7661 51.4796 14.0506 51.7034 14.4375C53.9623 18.6273 55.0954 23.3316 54.9919 28.0904C54.8883 32.8492 53.5517 37.4997 51.1127 41.5873C48.6736 45.6749 45.2157 49.0596 41.0768 51.4106C36.938 53.7616 32.2599 54.9983 27.5 55Z" fill="black"/>
<path d="M47.1179 12.4896C46.8696 12.4899 46.6241 12.4364 46.3984 12.3328C46.1727 12.2291 45.9722 12.0778 45.8106 11.8892L45.5012 11.5328C45.3479 11.3647 45.2296 11.1678 45.153 10.9535C45.0764 10.7393 45.0432 10.512 45.0551 10.2848C45.067 10.0576 45.124 9.83507 45.2226 9.63004C45.3212 9.42502 45.4595 9.24162 45.6296 9.09047C45.7996 8.93932 45.998 8.82343 46.2131 8.74952C46.4283 8.67561 46.656 8.64516 46.883 8.65992C47.11 8.67468 47.3319 8.73437 47.5357 8.83552C47.7394 8.93667 47.9211 9.07727 48.0701 9.24917L48.4231 9.65365C48.6366 9.90326 48.7741 10.2088 48.8193 10.5342C48.8645 10.8595 48.8156 11.191 48.6783 11.4894C48.5409 11.7878 48.321 12.0405 48.0445 12.2178C47.7679 12.3951 47.4464 12.4894 47.1179 12.4896Z" fill="black"/>
</g>
<defs>
<clipPath id="clip0_473_331">
<rect width="55" height="55" fill="white"/>
</clipPath>
</defs>
</svg>
