<svg width="55" height="55" viewBox="0 0 55 55" fill="none" xmlns="http://www.w3.org/2000/svg">
<path d="M40.9665 0H14.0352C11.3697 0 9.20117 2.16853 9.20117 4.83398V50.166C9.20117 52.8315 11.3697 55 14.0352 55H40.9664C43.6318 55 45.8003 52.8315 45.8003 50.166V4.83398C45.8004 2.16853 43.6319 0 40.9665 0ZM40.9665 51.7773H14.0352C13.1467 51.7773 12.4238 51.0545 12.4238 50.166V4.83398C12.4238 3.9455 13.1467 3.22266 14.0352 3.22266H40.9664C41.8548 3.22266 42.5777 3.9455 42.5777 4.83398V50.166H42.5778C42.5778 51.0545 41.8549 51.7773 40.9665 51.7773Z" fill="black"/>
<path d="M27.4995 6.18138C23.6777 6.18138 20.5684 9.29071 20.5684 13.1126C20.5684 16.9344 23.6777 20.0439 27.4995 20.0439C31.3214 20.0439 34.4307 16.9345 34.4307 13.1127C34.4307 9.29082 31.3214 6.18138 27.4995 6.18138ZM27.4995 16.8212C25.4547 16.8212 23.791 15.1576 23.791 13.1127C23.791 11.0678 25.4547 9.40404 27.4995 9.40404C29.5444 9.40404 31.2081 11.0677 31.2081 13.1126C31.2081 15.1574 29.5444 16.8212 27.4995 16.8212Z" fill="black"/>
<path d="M27.5004 22.4481C20.4956 22.4481 14.7969 28.1468 14.7969 35.1516C14.7969 42.1563 20.4956 47.8549 27.5004 47.8549C34.5051 47.8549 40.2039 42.1562 40.2039 35.1516C40.2039 28.1469 34.5051 22.4481 27.5004 22.4481ZM27.5004 44.6323C22.2727 44.6323 18.0195 40.3792 18.0195 35.1516C18.0195 29.9238 22.2727 25.6707 27.5004 25.6707C32.7281 25.6707 36.9812 29.9238 36.9812 35.1516C36.9812 40.3792 32.7281 44.6323 27.5004 44.6323Z" fill="black"/>
<path d="M27.5 29.7922C24.5448 29.7922 22.1406 32.1964 22.1406 35.1516C22.1406 38.1066 24.5448 40.5108 27.5 40.5108C30.4552 40.5108 32.8594 38.1066 32.8594 35.1516C32.8594 32.1964 30.4552 29.7922 27.5 29.7922ZM27.5 37.2882C26.3218 37.2882 25.3633 36.3297 25.3633 35.1516C25.3633 33.9734 26.3218 33.0148 27.5 33.0148C28.6782 33.0148 29.6367 33.9734 29.6367 35.1516C29.6367 36.3297 28.6782 37.2882 27.5 37.2882Z" fill="black"/>
</svg>
