<svg width="40" height="40" viewBox="0 0 40 40" fill="none" xmlns="http://www.w3.org/2000/svg">
<g clip-path="url(#clip0_92_29)">
<path d="M34.1424 34.1423C41.9529 26.3318 41.9529 13.6684 34.1424 5.8579C26.3318 -1.95263 13.6684 -1.95263 5.85792 5.8579C-1.95262 13.6684 -1.95262 26.3318 5.85792 34.1423C13.6684 41.9529 26.3318 41.9529 34.1424 34.1423Z" fill="#0ED659"/>
<path d="M28.7674 25.8392C25.9785 24.2948 22.3869 23.3088 18.6542 23.0628C15.3165 22.8424 12.0749 23.2086 9.28039 24.1219C8.81488 24.2742 8.43639 24.5984 8.21477 25.0351C7.99315 25.4718 7.9551 25.9687 8.10709 26.4342C8.42084 27.3949 9.45769 27.9212 10.4191 27.6073C12.7729 26.838 15.5377 26.5317 18.4127 26.7215C21.6179 26.9329 24.6644 27.7588 26.991 29.047C27.2623 29.1971 27.5691 29.2767 27.8779 29.2767C28.5451 29.2767 29.1601 28.9145 29.4829 28.3313C29.9725 27.4469 29.6513 26.3291 28.767 25.8394L28.7674 25.8392Z" fill="#080505"/>
<path d="M31.1996 19.9685C27.8856 18.1334 23.6124 16.9615 19.1677 16.6682C15.1907 16.406 11.3334 16.8413 8.01098 17.9271C7.54547 18.0793 7.16698 18.4035 6.94536 18.8403C6.72374 19.277 6.68569 19.7738 6.83769 20.2394C7.15143 21.1999 8.18804 21.7264 9.1497 21.4124C12.0319 20.4705 15.4125 20.095 18.9262 20.3268C22.8438 20.5854 26.5719 21.5971 29.4234 23.1761C29.6947 23.3262 30.0015 23.4058 30.3104 23.4058C30.9775 23.4058 31.5925 23.0436 31.9153 22.4604C32.4049 21.576 32.0838 20.4582 31.1994 19.9685H31.1996Z" fill="#080505"/>
<path d="M34.3183 15.2445C34.1579 14.7817 33.827 14.4093 33.3863 14.1953C29.5924 12.3544 24.7094 11.156 19.6367 10.8214C15.0988 10.5218 10.7045 10.9112 6.92866 11.9471C6.45642 12.0766 6.06307 12.3825 5.8208 12.8081C5.57853 13.2337 5.51634 13.7282 5.64606 14.2002C5.91316 15.1749 6.92425 15.7506 7.89913 15.483C11.2849 14.5541 15.2606 14.2072 19.3954 14.4801C24.0069 14.7843 28.4072 15.8548 31.7856 17.4941C32.0376 17.6164 32.3065 17.6783 32.585 17.6783C33.2831 17.6783 33.9307 17.2727 34.2354 16.6452C34.4492 16.2045 34.4786 15.7072 34.3183 15.2445Z" fill="#080505"/>
</g>
<defs>
<clipPath id="clip0_92_29">
<rect width="40" height="40" fill="white"/>
</clipPath>
</defs>
</svg>
