<svg width="50" height="35" viewBox="0 0 50 35" fill="none" xmlns="http://www.w3.org/2000/svg">
<g clip-path="url(#clip0_92_11)">
<path d="M44.5345 1.04483C40.6352 0 25 0 25 0C25 0 9.36482 0 5.46549 1.04483C3.31436 1.61984 1.61981 3.31393 1.0449 5.46546C0 9.3644 0 17.4998 0 17.4998C0 17.4998 0 25.6351 1.0449 29.5345C1.61981 31.6856 3.31436 33.3802 5.46549 33.9552C9.36482 35 25 35 25 35C25 35 40.6357 35 44.5345 33.9552C46.6856 33.3802 48.3802 31.6861 48.9551 29.5345C50 25.6351 50 17.4998 50 17.4998C50 17.4998 50 9.3644 48.9551 5.46499C48.3802 3.31393 46.6856 1.61936 44.5345 1.04435V1.04483ZM19.8862 24.8864V10.1136L32.9544 17.5002L19.8862 24.8864Z" fill="#CC1717"/>
</g>
<defs>
<clipPath id="clip0_92_11">
<rect width="50" height="35" fill="white"/>
</clipPath>
</defs>
</svg>
