<svg width="1920" height="23" viewBox="0 0 1920 23" fill="none" xmlns="http://www.w3.org/2000/svg">
<g clip-path="url(#clip0_874_2)">
<path d="M2498.13 2.46092C2458.9 1.2785 2419.2 0.393185 2378.91 0.0840742C2350.28 -0.138005 2325.36 0.0330561 2297.96 1.19447C2269.61 2.3979 2242.5 4.04549 2215.45 5.66907C2164.07 8.75417 2114.96 11.8483 2057.22 11.17C1990.3 10.3838 1925.95 7.48472 1861.91 5.01183C1799.78 2.70101 1736.56 0.720301 1671.84 0.222124C1643.21 4.42309e-05 1618.3 0.171105 1590.9 1.33252C1562.54 2.53595 1535.43 4.18354 1508.38 5.80712C1457.01 8.89222 1407.89 11.9863 1350.15 11.3081C1230.94 9.90958 1115.6 1.52459 964.776 0.360173C936.148 0.138094 911.229 0.309155 883.831 1.47057C855.473 2.674 828.365 4.32159 801.316 5.94517C749.939 9.03027 700.822 12.1244 643.086 11.4461C576.17 10.6599 511.814 7.76082 447.778 5.28793C385.652 2.97711 322.426 0.9964 257.71 0.498222C229.081 0.276143 204.163 0.447204 176.765 1.60862C148.406 2.81205 121.298 4.45964 94.2497 6.08322C42.8729 9.16832 -6.24406 12.2624 -63.9805 11.5842C-116.987 10.963 -168.374 9.01226 -219.281 7.00154L-235 9.05428C-194.842 10.5098 -148.225 12.1364 -113.137 12.9977C-94.9686 13.4418 -77.4197 13.6669 -59.0008 13.91C-26.5028 14.3422 -3.9342 13.1597 25.714 12.1574C48.5426 11.3861 71.1112 10.3297 94.2897 9.21033C150.026 6.51837 216.192 3.29822 276.169 3.8084C339.125 4.3456 372.903 5.28493 436.809 7.62577C481.926 9.27936 547.852 11.7282 593.919 12.8566C612.088 13.3008 629.637 13.5259 648.056 13.769C680.554 14.2011 703.122 13.0187 732.771 12.0163C755.599 11.2451 778.168 10.1887 801.346 9.06928C857.083 6.37732 923.249 3.15717 983.225 3.66735C1112.62 4.77175 1174.13 9.60647 1300.99 12.7186C1319.15 13.1627 1336.7 13.3878 1355.12 13.6309C1387.62 14.0631 1410.19 12.8806 1439.84 11.8783C1462.67 11.107 1485.23 10.0506 1508.41 8.93123C1564.15 6.23927 1630.32 3.01912 1690.29 3.5293C1753.25 4.0665 1787.03 5.00583 1850.93 7.34667C1896.05 9.00026 1961.97 11.4491 2008.04 12.5775C2026.21 13.0217 2043.76 13.2468 2062.18 13.4899C2094.68 13.922 2117.25 12.7396 2146.89 11.7372C2169.72 10.966 2192.29 9.90958 2215.47 8.79018C2271.21 6.09822 2337.37 2.87807 2397.35 3.38825C2448.94 3.82941 2480.94 4.54067 2525.98 6.07121L2498.11 2.45792L2498.13 2.46092Z" fill="#3CD2A5"/>
</g>
<g opacity="0.35" clip-path="url(#clip1_874_2)">
<path d="M2498.13 20.5391C2458.9 21.7215 2419.2 22.6068 2378.91 22.9159C2350.28 23.138 2325.36 22.967 2297.96 21.8056C2269.61 20.6021 2242.5 18.9545 2215.45 17.331C2164.07 14.2459 2114.96 11.1518 2057.22 11.83C1990.3 12.6163 1925.95 15.5153 1861.91 17.9882C1799.78 20.2991 1736.56 22.2798 1671.84 22.778C1643.21 23 1618.3 22.829 1590.9 21.6676C1562.54 20.4641 1535.43 18.8166 1508.38 17.193C1457.01 14.1079 1407.89 11.0138 1350.15 11.692C1230.94 13.0905 1115.6 21.4755 964.776 22.64C936.148 22.862 911.229 22.691 883.831 21.5296C855.473 20.3261 828.365 18.6786 801.316 17.055C749.939 13.9699 700.822 10.8758 643.086 11.554C576.17 12.3403 511.814 15.2394 447.778 17.7123C385.652 20.0231 322.426 22.0038 257.71 22.502C229.081 22.7241 204.163 22.553 176.765 21.3916C148.406 20.1882 121.298 18.5406 94.2497 16.917C42.8729 13.8319 -6.24407 10.7378 -63.9805 11.416C-116.987 12.0373 -168.374 13.988 -219.281 15.9987L-235 13.946C-194.842 12.4904 -148.225 10.8639 -113.137 10.0025C-94.9686 9.55839 -77.4197 9.33331 -59.0008 9.09022C-26.5028 8.65806 -3.93421 9.84048 25.714 10.8428C48.5426 11.6141 71.1112 12.6705 94.2897 13.7899C150.026 16.4818 216.192 19.702 276.169 19.1918C339.125 18.6546 372.903 17.7153 436.809 15.3744C481.926 13.7208 547.852 11.2719 593.919 10.1435C612.088 9.69938 629.637 9.47429 648.056 9.23121C680.554 8.79905 703.122 9.98147 732.771 10.9838C755.599 11.7551 778.168 12.8115 801.346 13.9309C857.083 16.6228 923.249 19.843 983.225 19.3328C1112.62 18.2284 1174.13 13.3936 1300.99 10.2815C1319.15 9.83736 1336.7 9.61228 1355.12 9.36919C1387.62 8.93704 1410.19 10.1195 1439.84 11.1218C1462.67 11.8931 1485.23 12.9495 1508.41 14.0689C1564.15 16.7608 1630.32 19.981 1690.29 19.4708C1753.25 18.9336 1787.03 17.9942 1850.93 15.6534C1896.05 13.9998 1961.97 11.5509 2008.04 10.4225C2026.21 9.97835 2043.76 9.75327 2062.18 9.51018C2094.68 9.07803 2117.25 10.2604 2146.89 11.2628C2169.72 12.0341 2192.29 13.0904 2215.47 14.2098C2271.21 16.9018 2337.37 20.1219 2397.35 19.6118C2448.94 19.1706 2480.94 18.4593 2525.98 16.9288L2498.11 20.5421L2498.13 20.5391Z" fill="#3CD2A5"/>
</g>
<defs>
<clipPath id="clip0_874_2">
<rect width="2761" height="14" fill="white" transform="translate(-235)"/>
</clipPath>
<clipPath id="clip1_874_2">
<rect width="2761" height="14" fill="white" transform="matrix(1 -8.74228e-08 -8.74228e-08 -1 -235 23.0002)"/>
</clipPath>
</defs>
</svg>
