<svg width="14" height="184" viewBox="0 0 14 184" fill="none" xmlns="http://www.w3.org/2000/svg">
<path d="M9.81049 137.364L3.43041 130.986M9.81049 130.986L3.43041 137.364M9.81049 52.2548L3.43041 45.8763M9.81049 45.8763L3.43041 52.2548M11.1313 176.73C11.1313 174.24 9.10991 172.219 6.62023 172.219C4.13054 172.219 2.10911 174.24 2.10911 176.73C2.10911 179.219 4.13054 181.241 6.62023 181.241C9.10991 181.241 11.1313 179.219 11.1313 176.73ZM11.1313 91.6203C11.1313 89.1307 9.10991 87.1094 6.62022 87.1094C4.13054 87.1094 2.1091 89.1307 2.1091 91.6203C2.1091 94.1099 4.13054 96.1313 6.62022 96.1313C9.10991 96.1313 11.1313 94.1099 11.1313 91.6203ZM11.1313 6.51086C11.1313 4.02127 9.10991 1.99991 6.62022 1.99991C4.13053 1.99991 2.1091 4.02127 2.1091 6.51086C2.1091 9.00046 4.13053 11.0218 6.62022 11.0218C9.10991 11.0218 11.1313 9.00046 11.1313 6.51086Z" stroke="#02A8F0" stroke-width="4" stroke-miterlimit="1.5" stroke-linecap="square"/>
</svg>
