<?xml version="1.0" encoding="UTF-8"?>
<svg id="Layer_1" xmlns="http://www.w3.org/2000/svg" version="1.1" viewBox="0 0 64 64">
  <!-- Generator: Adobe Illustrator 29.1.0, SVG Export Plug-In . SVG Version: 2.1.0 Build 142)  -->
  <defs>
    <style>
      .st0 {
        fill: #fff;
      }

      .st1 {
        fill: none;
      }
    </style>
  </defs>
  <rect class="st0" x=".85" y=".85" width="62.29" height="62.29" rx="6.41" ry="6.41"/>
  <g>
    <g>
      <path d="M35.54,11.84c.18.03.51-.09.81.05.26.13.53.26.8.4.22.11.43.21.61.4.14.15.4.14.53.34.12.19.42.12.54.33.35-.1.5.19.72.35.3.21.34.58.59.82.2.2.28.52.42.78.09.16.09.36.26.47-.08.22.24.29.19.5-.05.21.14.33.18.5.05.17-.01.37.17.51.05.04.03.18.03.27,0,.26.02.51,0,.77-.02.27.09.56-.1.82-.18.25-.05.55-.09.83,0,.03-.03.06-.05.07-.26.13-.03.44-.21.59-.11.09-.09.23-.14.32-.1.16-.26.28-.4.41-.07.07-.13.14-.21.2-.04.03-.11.05-.17.05-.16,0-.32,0-.48,0-.15.01-.23-.06-.32-.15-.22-.23-.43-.48-.68-.67-.21-.17-.18-.47-.4-.61,0-.25-.04-.52,0-.76.02-.12.21-.21.33-.3.02-.02.08-.02.09,0,.27.25.61.44.72.83.02.09.08.16.18.04.08-.1.18-.18.27-.27.04-.04.11-.09.12-.14.02-.13,0-.26,0-.38,0-.09.03-.19.08-.25.11-.1.11-.22.11-.34,0-.25.02-.52-.04-.75-.05-.19-.31-.36-.31-.53,0-.3-.22-.5-.23-.78-.22-.14-.17-.46-.38-.61.03-.14-.05-.23-.15-.32-.32-.31-.62-.65-.96-.94-.22-.19-.48-.37-.81-.35-.1,0-.19-.01-.29,0-.3.05-.65-.16-.9.14-.2.23-.52.35-.57.73-.02.15-.26.27-.36.43-.09.15-.11.34-.2.49-.1.15-.14.34-.25.47-.15.18-.19.3,0,.48.05.05.06.17.06.26,0,.54,0,1.09,0,1.63,0,.25,0,.47.17.7.13.17-.09.5.17.7.04.03.05.12.04.17-.09.39.26.68.24,1.06.21.12.07.39.17.5.14.17.15.4.3.56.12.12.11.34.26.47.03.03.01.12.02.18,0,.03.04.05.07.07.28.14.24.51.48.66.21.13.16.4.33.54.14.12.29.24.28.46,0,.02.1.07.15.07.11,0,.18.05.2.14.02.09,0,.19,0,.29,0,.03.01.06.03.08.17.25.55.35.55.73,0,.02.04.06.06.07.47.11.67.55,1,.82.06.05.08.16.08.25,0,.13.02.23.12.34.12.13.25.18.42.16.14-.01.26.03.23.2-.05.27.11.5.29.53.25.05.32.14.29.36,0,.03-.01.07,0,.09.03.05.07.14.1.14.2-.03.29.1.39.22.16.17-.14.21-.1.26.09.13.17.23.21.4.03.14.22.09.34.08.16,0,.23.07.22.23-.02.17.02.3.16.42.12.1.21.2.24.38.05.24.15.01.24-.02.08-.03.22-.05.25,0,.11.14.14.32.25.47.06.08.08.3-.06.44-.06.06.1.56.18.58.08.02.18-.03.25-.07.19-.1.21-.1.21.06,0,.19,0,.38,0,.58,0,.19.13.26.32.18.24-.11.45,0,.45.26,0,.1-.07.14-.18.16-.23.05-.2.05-.1.2.16.23.39.17.6.18.22,0,.26.01.25.27,0,.26.27.41.21.69-.04.21,0,.45,0,.67,0,.02.05.07.06.06.04-.02.09-.05.12-.09.02-.02,0-.07,0-.09.02-.06.05-.11.08-.16.04.04.1.07.11.12.02.09.02.19,0,.29-.04.18-.37.32-.08.55.18.14,0,.38.14.52.1.09.15.18.15.33-.01.26,0,.51,0,.77.27.17.18.44.2.69,0,.06.03.13.07.16.31.21.33.5.32.83-.02.3-.06.61.17.89.08.09.02.31,0,.47-.02.17.04.31.18.41.16.12.25.27.22.49-.03.24.07.51-.19.7-.03.02.02.18.07.25.07.1.19.17.26.28.04.06.05.19.01.25-.06.11-.17.19-.26.28-.11.1-.13.21-.03.33.24.28.22.56.01.85-.11.17-.12.35,0,.52.19.26.17.53.03.78-.07.12-.1.22-.1.34,0,.13,0,.26.19.25,0,.06,0,.13,0,.19,0,.18-.01.19-.2.08-.07-.04-.09-.08-.14-.03-.09.12-.24.19-.24.38,0,.24.09.5-.09.73-.18.22-.04.49-.09.73-.02.08-.06.17-.11.24-.08.1-.18.18-.27.28-.02.02,0,.07,0,.09-.2.36-.33.76-.57,1.11.03.23-.13.24-.29.25-.05,0-.09.09-.14.13-.2.16-.15.47-.4.61-.19.11-.32.31-.48.47-.18.18-.39.34-.53.55-.11.17-.14.39-.41.39-.05.37-.39.39-.63.53-.05.03-.16.04-.16.07,0,.45-.43.47-.68.66-.27.21-.38.61-.8.62-.21.19-.39.45-.63.56-.19.08-.31.2-.44.33-.16.16-.4-.04-.52.14-.12.18-.37.07-.48.26-.02.04-.11.05-.16.06-.18.04-.39-.09-.54.08-.13.15-.29.08-.44.12-.11.03-.2.15-.31.18-.15.03-.32,0-.48,0-.42,0-.83,0-1.25,0-.24,0-.51-.1-.71.16-.04.05-.18.03-.27.03-.38,0-.77,0-1.15,0-.12,0-.31.01-.35-.05-.16-.25-.44-.04-.6-.2-.1-.1-.2-.18-.33-.13-.31.12-.53-.13-.77-.23-.24-.09-.37-.45-.72-.35-.2-.12-.41-.25-.61-.37-.31.11-.5-.23-.78-.2-.14-.23-.44-.19-.61-.38-.05-.06-.2-.04-.24-.1-.15-.27-.49-.26-.68-.47-.15-.17-.31-.32-.47-.48-.18-.18-.37-.36-.54-.55-.04-.04-.02-.13-.05-.17-.34-.39-.56-.85-.75-1.32-.05-.13-.19-.19-.2-.3,0-.14-.11-.22-.14-.33-.1-.28-.31-.52-.26-.86.02-.15-.14-.32-.17-.5-.03-.19,0-.38,0-.57-.26-.21-.19-.51-.19-.78,0-.29,0-.58,0-.86,0-.2.25-.27.21-.5-.03-.17-.09-.38.12-.52.04-.03.06-.11.06-.16-.06-.36.13-.65.29-.94.1-.18.25-.36.28-.55.05-.26.28-.33.4-.51-.1-.25.3-.34.2-.59.2-.2.4-.42.61-.61.18-.16.3-.4.58-.45.13-.03.26-.18.35-.3.14-.19.35-.23.54-.34.21-.12.42-.24.61-.39.17-.13.38-.3.64-.3.12-.21.37-.2.55-.31.19-.12.4-.26.64-.3.08-.01.14-.14.22-.16.18-.03.4.03.55-.05.14-.08.25-.16.42-.15.19.01.39-.02.58,0,.2.03.43-.13.6.11-.14.12-.37.08-.46.27-.31-.04-.38.34-.61.37-.27.03-.34.27-.52.37-.16.09-.37-.05-.52.13-.11.14-.36.08-.46.28-.09.19-.33.15-.46.27-.16.15-.43.11-.53.34-.09.19-.37.1-.46.27-.13.26-.43.23-.61.4-.4.41-.85.79-1.21,1.23-.22.27-.32.63-.48.95-.06.13-.18.27-.18.4,0,.21-.14.33-.19.5-.05.18-.01.38-.01.57,0,.22.01.45,0,.67-.02.26.07.47.18.7.1.2-.09.51.19.69-.11.33.27.55.21.88-.04.19.26.27.2.49.17.18.38.32.42.6,0,.07.13.14.19.2.25.25.47.54.76.73.21.14.44.33.75.29.19-.03.38,0,.58,0,.16,0,.2.14.3.21.14.1,0,.14-.04.2-.03.05-.08.13-.06.16.13.24.18.52.4.7.04.04.11.07.16.07.22,0,.45.01.67,0,.14,0,.25.02.33.13.14.19.31.28.57.26.45-.03.9-.02,1.34,0,.54.03.61.02,1.02-.18.25.08.34-.29.59-.21.1-.18.36-.14.46-.27.17-.22.44,0,.6-.19.05-.06.16-.07.24-.11.05-.03.12-.05.15-.1.14-.28.51-.24.67-.48.12-.18.33-.15.47-.27.14-.13.25-.32.41-.4.56-.26.9-.77,1.34-1.16.05-.04.12-.08.13-.14.06-.3.11-.61.41-.79-.03-.33.34-.42.42-.69.07-.23.26-.42.19-.69-.04-.14.03-.24.14-.33.09-.08.25-.2.23-.28-.07-.45.31-.59.52-.85.09-.11.09-.18.01-.33-.03-.06-.21-.1-.06-.2.17-.11.11-.34.26-.48.15-.14-.05-.45.21-.58,0-.19.03-.38.02-.56-.01-.18.07-.29.17-.41.08-.1.02-.24-.1-.32-.08-.05-.09-.09,0-.14.05-.04.12-.09.13-.14.04-.28-.09-.59.09-.83.19-.27.05-.55.11-.82.07-.3-.29-.47-.21-.79.06-.24.01-.51.01-.77-.31-.31-.17-.71-.19-1.07,0-.22-.27-.33-.21-.59.05-.21,0-.45,0-.67-.31-.14-.1-.48-.26-.66-.09-.1-.13-.2-.13-.33,0-.19,0-.38,0-.57-.24-.13-.11-.43-.22-.58-.13-.17-.12-.34-.17-.51-.06-.16-.24-.28-.35-.43-.03-.04,0-.15-.02-.18-.14-.14-.19-.3-.2-.5,0-.13-.18-.27-.17-.4.02-.31-.17-.53-.31-.74-.13-.2-.3-.39-.38-.61-.09-.24-.24-.42-.4-.61-.13-.15-.15-.39-.27-.56-.14-.21-.32-.38-.49-.57-.02-.02-.07-.05-.06-.07.06-.35-.39-.4-.4-.7,0-.05-.03-.12-.08-.16-.46-.38-.65-1-1.15-1.35-.26-.6-.8-.96-1.23-1.41-.26-.27-.36-.64-.67-.88-.26-.2-.5-.45-.63-.79-.06-.16-.25-.28-.4-.41-.12-.11-.04-.3-.2-.41-.15-.1-.25-.24-.29-.45-.04-.19-.32-.26-.37-.52-.03-.16-.3-.27-.34-.43-.05-.16-.19-.27-.2-.39-.02-.18-.14-.27-.21-.4-.03-.05-.01-.13,0-.19.02-.15-.1-.22-.14-.33-.1-.28-.33-.53-.24-.86.05-.21-.24-.27-.2-.5.03-.19,0-.38,0-.57-.28-.25-.17-.58-.19-.88-.02-.21-.26-.34-.2-.59.05-.21,0-.45,0-.67v-1.34c0-.22.02-.45,0-.67-.02-.21.1-.34.18-.5.08-.15-.04-.43.05-.55.12-.15.16-.33.24-.48.13-.23.23-.48.37-.71.12-.2.28-.38.4-.6.1-.19.29-.35.47-.47.23-.15.47-.28.67-.47.09-.09.26-.12.39-.2.17-.1.45.03.58-.22h.99ZM46.51,42.03s-.05,0-.06,0c-.1.07-.09.26,0,.32.02,0,.05,0,.06,0,.1-.07.09-.26,0-.32ZM41.29,48.34s-.06.05-.06.06c.01.05.04.09.06.13.02-.02.06-.05.06-.06-.01-.05-.04-.09-.06-.13Z"/>
      <path d="M46.38,38.29c0,.2-.09.27-.24.24-.1-.02-.16-.07-.15-.19.01-.14.09-.23.24-.19.07.02.12.1.15.13Z"/>
      <path d="M43.68,32.99c.03-.06.07-.14.11-.22.02.02.05.04.06.07.02.06.04.12.03.17-.01.05-.06.1-.09.15-.03-.05-.06-.1-.11-.17Z"/>
      <path d="M46.88,46.82s.06.05.06.06c-.02.04-.05.08-.09.11-.02.01-.07.01-.08,0-.01-.01-.01-.06,0-.08.03-.04.07-.06.11-.09Z"/>
    </g>
    <g>
      <path class="st1" d="M19.65,34.31s-.08.09-.09.15c-.05.2.09.43-.09.62-.06.06-.1.15-.1.24,0,.1.06.17.18.15.06-.01.15-.03.16-.06.03-.18.01-.37.05-.54.02-.1.11-.19.16-.29-.04-.04-.09-.09-.13-.13-.04-.04-.09-.09-.13-.13Z"/>
      <path class="st1" d="M19.94,32.31s-.04-.07-.05-.07c-.05,0-.1.02-.13.05-.08.09-.2.14-.2.3,0,.41,0,.82.01,1.23,0,.04.15.09.23.1.04,0,.14-.06.14-.09.01-.25,0-.51,0-.76s0-.51,0-.76Z"/>
      <path d="M24.66,47.96c-.07.09-.14.18-.12.32.05.25-.31.4-.2.69.02.04-.13.13-.15.22-.08.29-.25.54-.24.87,0,.22-.26.41-.18.69,0,.03-.1.08-.12.14-.13.3-.29.59-.43.88-.14.29-.26.6-.42.88-.21.39-.32.86-.71,1.15-.13.1-.23.09-.34-.08-.04-.07-.15-.72-.13-.79,0-.03.05-.05.05-.07,0-.35.01-.7,0-1.06,0-.08-.08-.17-.15-.22-.22-.19-.36-.35-.07-.61.09-.08.03-.24-.09-.32-.08-.05-.08-.08-.02-.14.06-.06.13-.15.13-.23-.01-.3.1-.63-.18-.89-.03-.03-.02-.15.01-.18.19-.13.18-.32.17-.51,0-.77,0-1.54,0-2.31,0-.17.02-.31.16-.42.04-.03.05-.13.03-.17-.07-.15-.27-.28,0-.42.07-.32-.15-.71.2-.97,0-.35,0-.7,0-1.06,0-.22,0-.45,0-.67.33-.27.17-.65.18-.98.02-.61,0-1.22,0-1.83,0-.16,0-.3.15-.42.04-.04.05-.2.01-.25-.14-.15-.21-.26-.06-.48.19-.27.19-.65.02-.88-.19-.27-.1-.39.08-.55.12-.11.21-.22.19-.41-.02-.13,0-.26,0-.38,0-.22.05-.57.11-.66.03-.05.08-.1.08-.16,0-.22-.02-.45,0-.67.03-.24-.11-.5.11-.72.17-.18.06-.42.07-.64.02-.32,0-.64,0-.96-.25-.15-.14-.28.02-.41.1-.08.18-.16.18-.31-.01-.35,0-.7,0-1.06,0-.12-.03-.31.04-.36.22-.18.13-.41.15-.62.01-.16.02-.32,0-.48-.03-.25.07-.34.31-.35.08,0,.09-.08.03-.13-.05-.04-.09-.09-.14-.13.19-.12.22-.3.19-.5-.05-.29.05-.55.2-.78.14-.22.25-.44.18-.69-.05-.18.37-.34.02-.52.06-.07.16-.13.17-.21.04-.27-.09-.58.2-.78,0-.28-.02-.54.17-.8.12-.17-.09-.51.18-.69.01-.28.02-.57.03-.85,0-.1-.04-.22,0-.28.37-.45.12-.98.18-1.46.02-.16-.06-.37.02-.47.32-.4.16-.85.17-1.28.03-.86.01-1.73,0-2.59,0-.27.11-.58-.19-.79,0-.16.02-.33,0-.48-.03-.14-.18-.27-.17-.4.02-.3-.17-.53-.18-.79,0-.28-.22-.42-.27-.67-.03-.16-.23-.33-.39-.4-.22-.08-.46-.09-.68-.23-.14-.09-.42.02-.54-.07-.18-.15-.35-.12-.53-.13-.19,0-.38,0-.58,0-.9,0-1.79,0-2.69,0-.22,0-.45.04-.59-.19-.18.02-.37-.06-.53.13-.13.17-.3.37-.49.43-.21.06-.24.14-.23.32,0,.16,0,.32,0,.48,0,.06.04.12.07.16.18.22.45.3.7.4.23.09.52-.11.73.09.23.21.48.08.72.11.25.03.51,0,.77,0,.1,0,.2-.02.29,0,.08.02.15.1.23.14.19.1.09.35.26.48.07.05.06.23.06.35,0,.64,0,1.28,0,1.92,0,.09.03.23-.01.28-.32.29-.14.66-.17.99-.02.22,0,.45,0,.67-.28.32-.17.71-.19,1.07,0,.06,0,.15-.03.17-.24.16-.2.42-.14.61.1.31-.22.43-.22.69,0,.34.13.73-.06,1.02-.23.34-.07.68-.11,1.01-.03.19-.26.27-.21.5.04.18,0,.38,0,.57,0,.02-.04.05-.07.07-.24.14-.01.42-.2.59-.21.2-.07.48-.11.72-.01.09-.01.19,0,.29.02.17-.07.28-.15.42-.05.08.18.2.16.38-.03.22.03.45-.2.59v.77c-.31.2-.17.52-.19.79-.02.32-.03.64,0,.96.04.3-.08.48-.29.65-.11.09-.15.21-.06.32.08.1.16.18.16.32-.01.22,0,.45,0,.67-.01.24.1.52-.18.69.09.12.21.21.19.4-.03.29.01.58-.01.86-.02.25.12.52-.07.74-.22.26-.06.55-.12.82-.03.11-.17.2-.17.31,0,.13.15.27.12.38-.02.1-.15.18-.14.32.01.26,0,.51,0,.77,0,.22-.05.46.01.67.09.3-.23.43-.21.69.01.18.06.36-.11.53-.17.17-.03.42-.08.64-.01.05-.11.08-.13.14-.03.08-.07.22-.03.25.31.29.14.65.14.98-.3.25-.12.59-.16.89-.02.15.03.37-.05.45-.21.19-.12.41-.14.62-.02.22-.22.34-.21.59,0,.36.2.77-.17,1.07,0,.26-.04.52.01.77.06.28-.19.46-.19.69-.02,1.22-.01,2.43,0,3.65,0,.11.06.18.18.17.11-.01.19.04.2.14.02.13.02.26,0,.38-.04.19.18.25.2.4.02.19,0,.39.05.56.07.19.27.35.31.54.04.17.15.27.2.4.05.14,0,.32.01.48,0,.18.26.27.2.5-.02.07.03.19.08.25.42.44.86.86,1.29,1.29.24.04.4.29.66.25.23-.04.42.04.6.19.02.02.07.01.09,0,.05-.03.1-.06.15-.09-.02-.02-.05-.04-.07-.07-.04-.04-.07-.09-.11-.14.05-.03.1-.08.16-.08.33-.03.59-.1.79-.19.41-.2.65-.58.96-.89.02-.02,0-.06,0-.09-.05-.22.07-.35.22-.49.2-.19.44-.36.38-.72-.02-.11.18-.21.2-.4,0-.12.22-.21.18-.4.26-.2.39-.45.42-.79.02-.19.24-.34.31-.54.07-.19-.03-.45.21-.58,0-.22-.03-.45.2-.59-.02-.1-.02-.19,0-.27l-.46-2.12ZM19.75,34.86c-.04.18-.02.36-.05.54,0,.03-.1.05-.16.06-.12.02-.18-.05-.18-.15,0-.08.04-.18.1-.24.18-.19.04-.42.09-.62.01-.05.06-.1.09-.15.04.04.09.09.13.13.04.04.09.09.13.13-.06.09-.14.18-.16.29ZM19.93,33.83s-.1.1-.14.09c-.08-.01-.23-.06-.23-.1-.02-.41,0-.82-.01-1.23,0-.16.13-.21.2-.3.03-.03.09-.04.13-.05.01,0,.05.04.05.07,0,.25,0,.51,0,.76s0,.51,0,.76Z"/>
      <path d="M23.65,7.56c-.1-.08-.17-.22-.28-.26-.25-.09-.44-.31-.75-.28-.28.03-.57-.01-.75.28-.04.06-.17.13-.23.11-.36-.1-.62.25-.98.22-.1,0-.23.19-.34.29.14.34-.27.55-.2.88.03.15.06.38-.02.46-.47.46.06.87.04,1.3,0,.18.28.33.5.33.18,0,.39.05.51-.15.15.07.31.13.46.2.07.03.1.2.2.09.12-.15.27-.15.43-.13.2.02.38-.01.49-.19.19.05.27-.16.4-.18.2-.02.28-.07.27-.28,0-.09,0-.23.05-.26.25-.15.03-.44.2-.59.21-.18.1-.41.13-.62,0-.06,0-.13,0-.19,0-.22,0-.45,0-.67,0-.14-.03-.24-.14-.33Z"/>
    </g>
  </g>
</svg>