<svg width="255" height="115" viewBox="0 0 255 115" fill="none" xmlns="http://www.w3.org/2000/svg">
<path d="M26.2635 62.968L19.1595 98.936H14.3595L6.9355 63.288V99H2.5835V54.2H9.5595L16.9195 89.976L24.0235 54.2H30.9995V99H26.2635V62.968ZM47.2835 54.2V88.44C47.2835 92.472 48.8835 94.904 52.5315 94.904C56.1155 94.904 57.7155 92.472 57.7155 88.44V54.2H62.3875V88.184C62.3875 94.968 59.2515 99.512 52.3395 99.512C45.4915 99.512 42.3555 94.968 42.3555 88.184V54.2H47.2835ZM83.1055 53.752C89.8895 53.752 93.0895 58.168 93.0895 64.952V66.168H88.3535V64.696C88.3535 60.664 86.8175 58.296 83.2335 58.296C79.6495 58.296 78.1135 60.664 78.1135 64.632C78.1135 74.68 93.1535 75.64 93.1535 88.248C93.1535 95.032 89.8895 99.448 83.0415 99.448C76.1935 99.448 72.9935 95.032 72.9935 88.248V85.688H77.6655V88.504C77.6655 92.536 79.3295 94.904 82.9135 94.904C86.4975 94.904 88.1615 92.536 88.1615 88.504C88.1615 78.52 73.1855 77.56 73.1855 64.952C73.1855 58.04 76.3855 53.752 83.1055 53.752ZM103.91 54.2H108.902V99H103.91V54.2ZM130.099 53.752C137.011 53.752 140.211 58.232 140.211 65.016V69.048H135.475V64.76C135.475 60.728 133.875 58.296 130.227 58.296C126.643 58.296 124.979 60.728 124.979 64.76V88.44C124.979 92.472 126.643 94.904 130.227 94.904C133.875 94.904 135.475 92.472 135.475 88.44V82.616H140.211V88.184C140.211 94.968 137.011 99.448 130.099 99.448C123.251 99.448 120.051 94.968 120.051 88.184V65.016C120.051 58.232 123.251 53.752 130.099 53.752ZM151.147 54.2H156.139V99H151.147V54.2ZM184.056 89.976H172.728L171 99H166.392L174.968 54.2H182.2L190.776 99H185.784L184.056 89.976ZM178.296 59.832L173.368 85.688H183.352L178.296 59.832ZM205.489 62.776V99H201.009V54.2H207.345L217.713 86.584V54.2H222.129V99H216.945L205.489 62.776ZM243.068 53.752C249.852 53.752 253.052 58.168 253.052 64.952V66.168H248.316V64.696C248.316 60.664 246.78 58.296 243.196 58.296C239.612 58.296 238.076 60.664 238.076 64.632C238.076 74.68 253.116 75.64 253.116 88.248C253.116 95.032 249.852 99.448 243.004 99.448C236.156 99.448 232.956 95.032 232.956 88.248V85.688H237.628V88.504C237.628 92.536 239.292 94.904 242.876 94.904C246.46 94.904 248.124 92.536 248.124 88.504C248.124 78.52 233.148 77.56 233.148 64.952C233.148 58.04 236.348 53.752 243.068 53.752Z" fill="url(#paint0_linear_146_2)"/>
<path d="M110.65 19H107.65V5.6H110.65V19ZM115.63 8.3H102.67V5.6H115.63V8.3ZM133.905 19H130.905V5.6H133.905V19ZM123.905 19H120.905V5.6H123.905V19ZM132.445 13.62H121.745V10.92H132.445V13.62ZM142.715 19H139.715V5.6H142.715V19ZM151.055 19H140.555V16.3H151.055V19ZM150.755 13.6H140.555V10.92H150.755V13.6ZM151.055 8.3H140.555V5.6H151.055V8.3Z" fill="white"/>
<defs>
<linearGradient id="paint0_linear_146_2" x1="0" y1="83" x2="255" y2="83" gradientUnits="userSpaceOnUse">
<stop stop-color="#D35D07"/>
<stop offset="1" stop-color="#B54FE6"/>
</linearGradient>
</defs>
</svg>
