<svg width="602" height="602" viewBox="0 0 602 602" fill="none" xmlns="http://www.w3.org/2000/svg">
<g clip-path="url(#clip0_530_308)">
<path d="M301.003 602C260.368 602 220.951 594.041 183.839 578.347C147.999 563.189 115.805 541.483 88.1638 513.842C60.5229 486.201 38.8173 454.007 23.6586 418.167C7.95875 381.055 0 341.638 0 301.003C0 260.368 7.95875 220.951 23.6527 183.839C38.8114 147.999 60.5171 115.805 88.158 88.1638C115.799 60.5229 147.993 38.8173 183.833 23.6586C220.945 7.95875 260.368 0 301.003 0C341.638 0 381.055 7.95875 418.167 23.6527C454.007 38.8114 486.201 60.5171 513.842 88.158C541.483 115.799 563.189 147.993 578.347 183.833C594.041 220.945 602 260.362 602 300.997C602 341.632 594.041 381.049 578.347 418.161C563.189 454.001 541.483 486.195 513.842 513.836C486.201 541.477 454.007 563.183 418.167 578.341C381.055 594.035 341.638 601.994 301.003 601.994V602ZM301.003 0.294115C135.193 0.294115 0.294115 135.193 0.294115 301.003C0.294115 466.813 135.193 601.712 301.003 601.712C466.813 601.712 601.712 466.813 601.712 301.003C601.712 135.193 466.813 0.294115 301.003 0.294115Z" fill="#EAD1AB"/>
<path d="M301.003 586.624C262.445 586.624 225.039 579.071 189.828 564.177C155.816 549.789 125.269 529.195 99.0402 502.966C72.8111 476.737 52.2171 446.19 37.829 412.178C22.9351 376.967 15.3822 339.561 15.3822 301.003C15.3822 262.445 22.9351 225.039 37.829 189.828C52.2171 155.816 72.8111 125.269 99.0402 99.0402C125.269 72.8111 155.816 52.2171 189.828 37.829C225.039 22.9351 262.445 15.3822 301.003 15.3822C339.561 15.3822 376.967 22.9351 412.178 37.829C446.19 52.2171 476.737 72.8111 502.966 99.0402C529.195 125.269 549.789 155.816 564.177 189.828C579.071 225.039 586.624 262.445 586.624 301.003C586.624 339.561 579.071 376.967 564.177 412.178C549.789 446.19 529.195 476.737 502.966 502.966C476.737 529.195 446.19 549.789 412.178 564.177C376.967 579.071 339.561 586.624 301.003 586.624ZM301.003 15.9822C143.84 15.9822 15.9822 143.84 15.9822 301.003C15.9822 458.166 143.84 586.024 301.003 586.024C458.166 586.024 586.018 458.166 586.018 301.003C586.018 143.84 458.16 15.9822 301.003 15.9822Z" fill="#EAD1AB"/>
<path d="M301.003 571.242C264.521 571.242 229.127 564.095 195.81 550.006C163.628 536.395 134.728 516.913 109.911 492.089C85.0933 467.266 65.6053 438.372 51.9936 406.19C37.8997 372.873 30.7585 337.479 30.7585 300.997C30.7585 264.515 37.9055 229.121 51.9936 195.804C65.6053 163.622 85.0874 134.722 109.911 109.905C134.728 85.0874 163.628 65.5994 195.81 51.9878C229.127 37.8938 264.521 30.7527 301.003 30.7527C337.485 30.7527 372.879 37.8997 406.196 51.9878C438.378 65.5994 467.278 85.0874 492.095 109.905C516.913 134.722 536.401 163.622 550.012 195.804C564.106 229.121 571.247 264.515 571.247 300.997C571.247 337.479 564.1 372.873 550.012 406.19C536.401 438.372 516.919 467.272 492.095 492.089C467.272 516.907 438.378 536.395 406.196 550.006C372.879 564.1 337.485 571.242 301.003 571.242ZM301.003 31.6703C152.493 31.6703 31.6762 152.493 31.6762 300.997C31.6762 449.502 152.499 570.324 301.003 570.324C449.507 570.324 570.33 449.502 570.33 300.997C570.33 152.493 449.507 31.6703 301.003 31.6703Z" fill="#EAD1AB"/>
<path d="M301.003 555.865C266.597 555.865 233.221 549.124 201.798 535.836C171.451 523.001 144.193 504.625 120.787 481.219C97.3814 457.813 79.0051 430.555 66.17 400.208C52.8819 368.785 46.1407 335.409 46.1407 301.003C46.1407 266.597 52.8819 233.221 66.17 201.798C79.0051 171.451 97.3814 144.193 120.787 120.787C144.193 97.3814 171.451 79.0051 201.798 66.17C233.221 52.8819 266.597 46.1407 301.003 46.1407C335.409 46.1407 368.785 52.8819 400.208 66.17C430.555 79.0051 457.813 97.3814 481.219 120.787C504.625 144.193 523.001 171.451 535.836 201.798C549.124 233.221 555.865 266.597 555.865 301.003C555.865 335.409 549.124 368.785 535.836 400.208C523.001 430.555 504.625 457.813 481.219 481.219C457.813 504.625 430.555 523.001 400.208 535.836C368.785 549.124 335.409 555.865 301.003 555.865ZM301.003 47.3643C161.146 47.3643 47.3643 161.146 47.3643 301.003C47.3643 440.86 161.146 554.642 301.003 554.642C440.86 554.642 554.642 440.86 554.642 301.003C554.642 161.146 440.86 47.3643 301.003 47.3643Z" fill="#EAD1AB"/>
<path d="M301.003 540.489C268.674 540.489 237.309 534.16 207.786 521.666C179.269 509.601 153.657 492.336 131.663 470.342C109.67 448.349 92.3991 422.737 80.3404 394.22C67.8523 364.696 61.5171 333.332 61.5171 301.003C61.5171 268.674 67.8464 237.309 80.3404 207.786C92.405 179.269 109.67 153.657 131.663 131.663C153.657 109.67 179.269 92.3991 207.786 80.3404C237.309 67.8523 268.674 61.5171 301.003 61.5171C333.332 61.5171 364.696 67.8464 394.22 80.3404C422.737 92.405 448.349 109.67 470.342 131.663C492.336 153.657 509.601 179.269 521.665 207.786C534.154 237.309 540.489 268.674 540.489 301.003C540.489 333.332 534.159 364.696 521.665 394.22C509.601 422.737 492.336 448.349 470.342 470.342C448.349 492.336 422.737 509.601 394.22 521.666C364.696 534.154 333.332 540.489 301.003 540.489ZM301.003 63.0524C169.798 63.0524 63.0523 169.798 63.0523 301.003C63.0523 432.208 169.798 538.954 301.003 538.954C432.208 538.954 538.954 432.208 538.954 301.003C538.954 169.798 432.208 63.0524 301.003 63.0524Z" fill="#EAD1AB"/>
<path d="M301.003 525.107C270.75 525.107 241.398 519.183 213.769 507.495C187.081 496.207 163.116 480.048 142.534 459.466C121.952 438.884 105.793 414.919 94.505 388.231C82.8168 360.602 76.8934 331.25 76.8934 300.997C76.8934 270.744 82.8168 241.392 94.505 213.763C105.793 187.075 121.952 163.11 142.534 142.528C163.116 121.946 187.081 105.787 213.769 94.499C241.398 82.8109 270.75 76.8875 301.003 76.8875C331.256 76.8875 360.608 82.8109 388.237 94.499C414.925 105.787 438.89 121.946 459.472 142.528C480.054 163.11 496.213 187.075 507.501 213.763C519.189 241.392 525.112 270.744 525.112 300.997C525.112 331.25 519.189 360.602 507.501 388.231C496.213 414.919 480.054 438.884 459.472 459.466C438.89 480.048 414.925 496.207 388.237 507.495C360.608 519.183 331.256 525.107 301.003 525.107ZM301.003 78.7404C178.445 78.7404 78.7404 178.445 78.7404 301.003C78.7404 423.561 178.445 523.265 301.003 523.265C423.561 523.265 523.265 423.561 523.265 301.003C523.265 178.445 423.561 78.7404 301.003 78.7404Z" fill="#EAD1AB"/>
<path d="M301.003 509.73C272.827 509.73 245.492 504.213 219.757 493.325C194.904 482.813 172.581 467.76 153.41 448.596C134.24 429.425 119.193 407.102 108.681 382.249C97.799 356.514 92.2756 329.179 92.2756 301.003C92.2756 272.827 97.7932 245.492 108.681 219.757C119.193 194.904 134.246 172.581 153.41 153.41C172.581 134.24 194.904 119.193 219.757 108.681C245.492 97.799 272.827 92.2755 301.003 92.2755C329.179 92.2755 356.514 97.7931 382.249 108.681C407.102 119.193 429.425 134.246 448.596 153.41C467.766 172.581 482.813 194.904 493.325 219.757C504.207 245.492 509.73 272.827 509.73 301.003C509.73 329.179 504.213 356.514 493.325 382.249C482.813 407.102 467.76 429.425 448.596 448.596C429.431 467.766 407.102 482.813 382.249 493.325C356.514 504.207 329.179 509.73 301.003 509.73ZM301.003 94.4284C187.098 94.4284 94.4285 187.098 94.4285 301.003C94.4285 414.908 187.098 507.577 301.003 507.577C414.908 507.577 507.577 414.908 507.577 301.003C507.577 187.098 414.908 94.4284 301.003 94.4284Z" fill="#EAD1AB"/>
<path d="M301.003 494.348C249.356 494.348 200.804 474.236 164.287 437.719C127.769 401.202 107.658 352.644 107.658 301.003C107.658 249.362 127.769 200.804 164.287 164.287C200.804 127.769 249.362 107.658 301.003 107.658C352.644 107.658 401.202 127.769 437.719 164.287C474.237 200.804 494.348 249.362 494.348 301.003C494.348 352.644 474.237 401.202 437.719 437.719C401.202 474.236 352.644 494.348 301.003 494.348ZM301.003 110.117C195.751 110.117 110.122 195.745 110.122 300.997C110.122 406.249 195.751 491.877 301.003 491.877C406.255 491.877 491.883 406.249 491.883 300.997C491.883 195.745 406.255 110.117 301.003 110.117Z" fill="#EAD1AB"/>
<path d="M301.003 478.972C253.462 478.972 208.774 460.46 175.157 426.843C141.546 393.231 123.028 348.538 123.028 300.997C123.028 253.456 141.54 208.769 175.157 175.151C208.774 141.534 253.462 123.022 301.003 123.022C348.544 123.022 393.231 141.534 426.849 175.151C460.466 208.769 478.978 253.456 478.978 300.997C478.978 348.538 460.466 393.226 426.849 426.843C393.231 460.46 348.544 478.972 301.003 478.972ZM301.003 125.811C204.398 125.811 125.811 204.404 125.811 301.003C125.811 397.602 204.404 476.195 301.003 476.195C397.602 476.195 476.195 397.602 476.195 301.003C476.195 204.404 397.602 125.811 301.003 125.811Z" fill="#EAD1AB"/>
<path d="M301.003 463.595C257.574 463.595 216.745 446.684 186.033 415.972C155.322 385.261 138.41 344.432 138.41 301.003C138.41 257.574 155.322 216.745 186.033 186.033C216.745 155.322 257.574 138.41 301.003 138.41C344.432 138.41 385.261 155.322 415.972 186.033C446.684 216.745 463.595 257.574 463.595 301.003C463.595 344.432 446.684 385.261 415.972 415.972C385.261 446.684 344.432 463.595 301.003 463.595ZM301.003 141.499C213.051 141.499 141.499 213.051 141.499 301.003C141.499 388.955 213.051 460.507 301.003 460.507C388.955 460.507 460.507 388.955 460.507 301.003C460.507 213.051 388.955 141.499 301.003 141.499Z" fill="#EAD1AB"/>
<path d="M301.003 448.213C261.68 448.213 224.71 432.902 196.91 405.096C169.104 377.29 153.793 340.32 153.793 301.003C153.793 261.686 169.104 224.71 196.91 196.91C224.715 169.11 261.686 153.793 301.003 153.793C340.32 153.793 377.296 169.104 405.096 196.91C432.902 224.715 448.213 261.686 448.213 301.003C448.213 340.32 432.902 377.296 405.096 405.096C377.29 432.902 340.32 448.213 301.003 448.213ZM301.003 157.187C221.704 157.187 157.187 221.704 157.187 301.003C157.187 380.302 221.704 444.819 301.003 444.819C380.302 444.819 444.819 380.302 444.819 301.003C444.819 221.704 380.302 157.187 301.003 157.187Z" fill="#EAD1AB"/>
<path d="M301.003 432.837C265.786 432.837 232.68 419.125 207.78 394.226C182.881 369.326 169.169 336.22 169.169 301.003C169.169 265.786 182.881 232.68 207.78 207.78C232.68 182.881 265.786 169.169 301.003 169.169C336.22 169.169 369.326 182.881 394.226 207.78C419.125 232.68 432.837 265.786 432.837 301.003C432.837 336.22 419.125 369.326 394.226 394.226C369.326 419.125 336.22 432.837 301.003 432.837ZM301.003 172.875C230.357 172.875 172.875 230.351 172.875 301.003C172.875 371.655 230.351 429.131 301.003 429.131C371.655 429.131 429.131 371.655 429.131 301.003C429.131 230.351 371.655 172.875 301.003 172.875Z" fill="#EAD1AB"/>
<path d="M301.003 417.455C236.786 417.455 184.545 365.214 184.545 300.997C184.545 236.78 236.786 184.539 301.003 184.539C365.22 184.539 417.461 236.78 417.461 300.997C417.461 365.214 365.22 417.455 301.003 417.455ZM301.003 188.563C239.004 188.563 188.569 239.004 188.569 300.997C188.569 362.991 239.009 413.431 301.003 413.431C362.996 413.431 413.437 362.991 413.437 300.997C413.437 239.004 362.996 188.563 301.003 188.563Z" fill="#EAD1AB"/>
<path d="M301.003 402.078C245.268 402.078 199.927 356.738 199.927 301.003C199.927 245.268 245.268 199.927 301.003 199.927C356.738 199.927 402.078 245.268 402.078 301.003C402.078 356.738 356.738 402.078 301.003 402.078ZM301.003 204.251C247.656 204.251 204.257 247.651 204.257 300.997C204.257 354.344 247.656 397.743 301.003 397.743C354.349 397.743 397.749 354.344 397.749 300.997C397.749 247.651 354.349 204.251 301.003 204.251Z" fill="#EAD1AB"/>
<path d="M301.003 386.702C253.75 386.702 215.304 348.255 215.304 301.003C215.304 253.75 253.75 215.304 301.003 215.304C348.255 215.304 386.702 253.75 386.702 301.003C386.702 348.255 348.255 386.702 301.003 386.702ZM301.003 219.945C256.309 219.945 219.945 256.309 219.945 301.003C219.945 345.697 256.309 382.061 301.003 382.061C345.697 382.061 382.061 345.697 382.061 301.003C382.061 256.309 345.697 219.945 301.003 219.945Z" fill="#EAD1AB"/>
<path d="M301.003 371.32C262.227 371.32 230.686 339.773 230.686 301.003C230.686 262.233 262.233 230.68 301.003 230.68C339.773 230.68 371.32 262.227 371.32 301.003C371.32 339.779 339.773 371.32 301.003 371.32ZM301.003 235.633C264.956 235.633 235.633 264.956 235.633 301.003C235.633 337.05 264.956 366.373 301.003 366.373C337.05 366.373 366.373 337.05 366.373 301.003C366.373 264.956 337.05 235.633 301.003 235.633Z" fill="#EAD1AB"/>
<path d="M301.003 355.944C270.709 355.944 246.062 331.297 246.062 301.003C246.062 270.709 270.709 246.062 301.003 246.062C331.297 246.062 355.944 270.709 355.944 301.003C355.944 331.297 331.297 355.944 301.003 355.944ZM301.003 251.321C273.609 251.321 251.321 273.609 251.321 301.003C251.321 328.397 273.609 350.685 301.003 350.685C328.397 350.685 350.685 328.397 350.685 301.003C350.685 273.609 328.397 251.321 301.003 251.321Z" fill="#EAD1AB"/>
<path d="M301.003 340.561C279.186 340.561 261.439 322.815 261.439 300.997C261.439 279.18 279.186 261.433 301.003 261.433C322.82 261.433 340.567 279.18 340.567 300.997C340.567 322.815 322.82 340.561 301.003 340.561ZM301.003 267.009C282.262 267.009 267.009 282.256 267.009 300.997C267.009 319.738 282.256 334.991 301.003 334.991C319.75 334.991 334.991 319.744 334.991 300.997C334.991 282.25 319.744 267.009 301.003 267.009Z" fill="#EAD1AB"/>
<path d="M301.003 325.185C287.668 325.185 276.821 314.338 276.821 301.003C276.821 287.668 287.668 276.821 301.003 276.821C314.338 276.821 325.185 287.668 325.185 301.003C325.185 314.338 314.338 325.185 301.003 325.185ZM301.003 282.697C290.909 282.697 282.703 290.909 282.703 300.997C282.703 311.085 290.915 319.297 301.003 319.297C311.091 319.297 319.303 311.085 319.303 300.997C319.303 290.909 311.091 282.697 301.003 282.697Z" fill="#EAD1AB"/>
</g>
<defs>
<clipPath id="clip0_530_308">
<rect width="602" height="602" fill="white"/>
</clipPath>
</defs>
</svg>
