<svg width="983" height="271" viewBox="0 0 983 271" fill="none" xmlns="http://www.w3.org/2000/svg">
<g clip-path="url(#clip0_473_322)">
<path d="M966.818 138.409C951.855 126.517 937.451 120.114 926.477 114.193C921.599 103.623 915.07 93.9415 907.221 85.5562C909.177 76.4339 916.95 70.4371 928.433 70.4371C942.278 70.4371 948.705 84.9971 948.705 90.003L958.511 84.7685C956.58 80.9315 949.442 67.337 928.23 67.337C916.036 67.337 906.738 72.2158 901.124 79.4577C881.766 61.7468 856.083 50.8966 827.884 50.8966C804.259 50.8966 781.573 58.6976 762.902 72.8002C761.301 72.5715 759.777 72.292 758.354 72.0125C755.585 71.4789 753.502 70.9453 752.156 70.3863V95.9744L754.188 95.7711V92.3153C754.188 88.9357 755.331 86.0898 757.643 83.8029C759.955 81.5159 762.775 80.2963 766.153 80.1438H804.31V201.528C804.183 205.035 802.836 208.059 800.347 210.549C797.857 213.039 794.834 214.31 791.328 214.31H788.686V216.343H833.118V214.31H830.476C826.97 214.31 823.947 213.039 821.457 210.549C818.968 208.059 817.621 205.035 817.494 201.528V80.1438H855.651C858.877 80.2709 861.697 81.4905 864.085 83.8029C866.473 86.1152 867.641 88.9357 867.641 92.3153V95.7711L869.648 95.9744V70.3863C868.429 70.9453 866.422 71.4789 863.577 72.0125C860.732 72.5715 857.658 73.0289 854.33 73.4355C851.027 73.8421 847.877 74.0453 844.905 74.0453H776.924C774.155 74.0453 771.107 73.8421 767.779 73.4609C785.308 61.2132 806.088 54.5811 827.884 54.5811C855.371 54.5811 880.394 65.1518 899.091 82.4561C892.969 92.8235 893.629 106.697 903.181 117.929C910.65 126.772 920.888 133.734 930.999 140.29C932.167 146.541 932.777 152.969 932.777 159.525C932.777 179.472 927.671 197.488 918.754 212.811C898.101 207.246 891.038 184.961 891.241 176.855L874.297 185.927C878.26 195.278 891.267 212.074 916.696 216.216C897.084 247.064 861.519 266.045 821.305 266.045C767.423 266.045 721.925 246.987 680.898 219.138C694.286 218.782 706.15 215.758 716.413 209.99C727.362 203.841 735.923 195.201 742.07 184.097C748.243 173.018 751.317 160.084 751.317 145.321C751.317 130.558 748.243 117.649 742.07 106.545C735.923 95.4662 727.362 86.8267 716.413 80.6774C705.438 74.5281 692.736 71.4535 678.256 71.4535C663.776 71.4535 651.277 74.5281 640.328 80.6774C629.354 86.8267 620.793 95.4662 614.645 106.545C608.497 117.649 605.423 130.583 605.423 145.321C605.423 149.412 605.677 153.325 606.16 157.111C603.213 154.367 600.317 151.547 597.421 148.777C597.472 147.633 597.523 146.49 597.523 145.321C597.523 130.583 594.449 117.649 588.301 106.545C582.128 95.4662 573.567 86.8267 562.618 80.6774C551.644 74.5281 538.942 71.4535 524.487 71.4535C521.794 71.4535 519.177 71.5806 516.612 71.8092C502.97 59.8918 489.176 48.8638 474.899 39.1317C440.019 15.5256 403.819 0.0507812 361.064 0.0507812C281.5 0.0507812 230.59 43.0449 222.69 117.09L219.743 117.217L214.561 117.395L209.429 117.598L204.247 117.802L199.09 117.98L183.568 118.564L178.385 118.767L173.254 118.971L157.732 119.555L152.575 119.758L147.393 119.962L142.261 120.139L137.079 120.317L131.922 120.521L121.583 120.902L116.426 121.105L111.269 121.283L106.391 121.461L107.865 118.488L105.4 111.195C105.4 111.195 91.2505 115.159 77.253 117.497V99.6843C80.9365 99.176 83.6547 97.1432 83.6547 91.6292C83.6547 85.0988 79.8187 79.8389 75.119 79.8389C70.4193 79.8389 66.6342 85.1242 66.6342 91.6292C66.6342 97.1178 69.3524 99.1506 73.0105 99.6843V118.132C70.9274 118.412 68.8951 118.666 66.9644 118.818C62.5696 119.225 58.5812 119.987 54.9738 120.8V99.7605C60.4865 99.3793 64.6273 97.4228 64.6273 91.6292C64.6273 85.0988 59.3433 79.8389 52.8399 79.8389C46.3365 79.8389 41.0779 85.1242 41.0779 91.6292C41.0779 97.4482 45.2442 99.3539 50.706 99.7605V121.817C43.4659 123.595 38.2835 125.044 35.4637 122.681C33.8887 121.029 32.4407 119.199 30.891 117.573C28.122 114.117 25.2006 111.043 20.5263 112.288C13.6164 114.117 20.5263 122.121 17.0968 123.189C13.6164 124.307 10.4918 121.029 9.45022 123.189C8.43407 125.399 0.431869 123.189 0.127023 129.414C0.0508118 130.38 0.0508118 130.837 0.0508118 131.599C0.127023 132.59 0.0508118 132.895 0.127023 133.785C0.279446 139.985 8.43407 137.749 9.45022 139.985C10.4918 142.119 13.6164 138.841 17.0968 139.985C20.5263 141.052 13.6164 149.056 20.5263 150.835C25.2006 152.08 28.122 149.056 30.9418 145.55C32.4915 143.923 33.8887 142.068 35.4637 140.468C39.1219 137.418 46.743 140.722 57.6666 142.907V164.353C56.7775 165.471 56.1932 167.631 56.1932 171.519C56.1932 178.049 56.7775 183.157 59.8006 183.284C63.0522 183.284 63.4079 178.024 63.4079 171.519C63.4079 167.606 62.8236 165.446 61.9091 164.328V143.695C63.5095 143.949 65.1862 144.178 66.939 144.33C73.0105 144.838 79.895 146.058 86.1443 147.328V163.388C81.5462 163.82 78.1167 165.827 78.1167 171.494C78.1167 178.024 82.6894 183.258 88.2528 183.258C93.8162 183.258 98.3889 177.999 98.3889 171.494C98.3889 165.852 94.9594 163.82 90.3867 163.388V148.243C98.897 150.124 105.375 151.928 105.375 151.928L107.839 144.66L106.366 141.662L111.243 141.84L116.4 142.043L121.557 142.221L131.897 142.628L137.054 142.805L142.236 143.009L147.367 143.212L152.55 143.364L157.707 143.568L162.864 143.771L173.203 144.152L178.335 144.355L183.517 144.533L199.039 145.118L204.196 145.321L209.378 145.499L214.51 145.702L219.692 145.905L221.775 145.982C226.043 215.428 284.599 270.848 356.034 270.848C402.193 270.848 430.518 257.177 455.439 245.386C458.589 244.091 461.46 242.515 464.585 241.194C482.698 251.18 502.894 255.627 523.623 255.627C542.244 255.627 557.715 248.283 557.715 239.11C557.715 229.937 543.032 222.593 523.623 222.593C504.215 222.593 487.677 227.32 472.46 233.876C452.264 217.867 432.068 195.811 415.555 147.278C436.285 140.214 451.222 120.546 451.222 97.4482C451.222 68.0739 427.622 44.4424 398.255 44.4424H327.43V112.923L323.035 113.101L317.878 113.279L312.721 113.457L307.564 113.66L302.407 113.838L286.86 114.422L281.703 114.625L276.571 114.829L266.232 115.21L261.049 115.413L245.528 115.998L240.396 116.201L235.239 116.404L230.057 116.582L226.119 116.709C231.403 70.5641 254.622 31.4832 300.502 13.442C318.056 6.91154 338.531 3.48116 361.064 3.48116C418.655 3.48116 466.16 32.7791 511.76 72.1142C502.563 73.4101 494.129 76.1798 486.534 80.4487C475.559 86.598 466.998 95.2375 460.85 106.316C454.703 117.421 451.629 130.354 451.629 145.092C451.629 159.83 454.703 172.764 460.85 183.868C466.998 194.973 475.559 203.612 486.534 209.761C497.483 215.911 510.159 218.985 524.487 218.985C538.815 218.985 551.669 215.911 562.618 209.761C573.567 203.612 582.128 194.973 588.301 183.868C593.28 174.873 596.227 164.607 597.167 153.198C600.47 156.349 603.772 159.5 607.075 162.6C608.599 170.325 611.088 177.414 614.67 183.868C620.818 194.973 629.379 203.612 640.354 209.761C650.363 215.377 661.794 218.426 674.623 218.909C717.251 248.69 764.578 269.221 821.33 269.221C863.297 269.221 900.463 249.046 920.583 216.47C923.174 216.749 925.867 216.952 928.687 216.952C982.111 216.952 998.801 163.515 966.843 138.232L966.818 138.409ZM906.738 90.3333C912.25 96.6096 917.001 103.547 920.888 111.017C912.2 105.681 906.763 99.9892 906.738 90.3333ZM19.0275 135.818H6.27474C5.36021 135.818 4.69971 135.132 4.69971 134.191C4.69971 133.327 5.36021 132.616 6.27474 132.616H19.0275C19.9674 132.616 20.6787 133.327 20.6787 134.191C20.6787 135.132 19.9674 135.818 19.0275 135.818ZM19.0275 131.269H6.27474C5.36021 131.269 4.69971 130.532 4.69971 129.617C4.69971 128.703 5.36021 127.991 6.27474 127.991H19.0275C19.9674 127.991 20.6787 128.703 20.6787 129.617C20.6787 130.532 19.9674 131.269 19.0275 131.269ZM101.996 132.946H105.985L111.142 132.997L121.481 133.048H126.663L131.82 133.099H136.977L142.16 133.15L147.291 133.2H157.631L162.788 133.277H167.97L173.127 133.327H178.258L183.441 133.378H188.598L193.78 133.429L198.937 133.48H204.094L209.277 133.531H214.408L219.59 133.581H221.496C221.496 134.623 221.42 135.614 221.42 136.656H218.066L207.727 136.605L202.545 136.554L192.205 136.504H187.023L181.891 136.427H171.552L166.395 136.351H161.238L156.056 136.3H150.899L145.742 136.25L135.402 136.199L130.22 136.148H125.063L119.881 136.097H114.749L109.592 136.046H104.41H103.47L101.945 132.972L101.996 132.946ZM214.51 142.678L209.378 142.602L204.196 142.475L199.039 142.373L188.699 142.196L183.542 142.068L178.36 141.967L173.229 141.865L168.072 141.764L162.889 141.662L152.55 141.484L147.367 141.357L142.236 141.255L137.054 141.154L131.897 141.052L126.74 140.95L111.218 140.671L106.061 140.544H105.858L104.181 137.114H104.537L114.876 137.317L120.008 137.418L125.19 137.52L135.529 137.698L140.686 137.8L151.026 137.977L156.183 138.079L161.365 138.181L176.887 138.46L182.044 138.587L187.175 138.689L192.358 138.791L197.515 138.892L202.672 138.994L213.011 139.172L218.193 139.299L221.547 139.375C221.547 140.493 221.597 141.637 221.648 142.755L214.535 142.628L214.51 142.678ZM221.648 130.634H219.692L214.51 130.685L209.378 130.736L204.196 130.786H199.039L188.699 130.888H183.542L178.36 130.964H173.229L168.072 131.04H162.889L152.55 131.142H147.367L142.236 131.218H137.054L131.897 131.295L116.375 131.422H111.218L106.061 131.498H100.904H100.828L101.564 131.244L103.063 128.271H106.061L111.218 128.195L121.557 128.118H126.74L131.897 128.042L137.054 127.991H142.236L147.367 127.915H152.55L157.707 127.839L168.046 127.763H173.203L178.335 127.686L188.674 127.61L193.856 127.559L204.196 127.483H209.378L214.51 127.407L219.692 127.356H221.801C221.75 128.423 221.674 129.49 221.648 130.558V130.634ZM221.978 124.256L219.692 124.332L214.51 124.459L209.378 124.586L193.856 124.917L188.674 125.044L178.335 125.272L173.203 125.374L162.864 125.577L157.707 125.704L147.367 125.933L142.236 126.035L137.054 126.136L131.897 126.263L111.218 126.695L106.061 126.797L103.749 126.873L105.705 122.884H106.061L111.218 122.757L131.897 122.325L137.054 122.198L142.236 122.071L147.367 121.944L162.889 121.613L168.072 121.486L173.229 121.385L178.36 121.258L193.907 120.927L199.064 120.8L209.404 120.597L214.535 120.47L219.717 120.343L222.309 120.292C222.182 121.588 222.105 122.909 222.004 124.205L221.978 124.256ZM523.649 226.38C540.415 226.38 554.057 232.173 554.057 239.237C554.057 245.285 540.949 252.095 523.649 252.095C509.499 252.095 492.681 248.41 475.915 236.34C490.065 230.572 505.002 226.38 523.649 226.38ZM225.205 127.407L230.031 127.356H235.214L240.371 127.28H245.502L250.685 127.229L255.842 127.178H260.999L271.338 127.051H276.52L281.652 126.975H286.809L291.991 126.899L302.331 126.822L307.488 126.772H312.645L317.802 126.695H322.959L327.353 126.619V129.821L317.802 129.897L312.645 129.948H307.488L297.148 130.049L291.991 130.1L281.652 130.177L276.52 130.227L266.181 130.304H260.999L250.659 130.405H245.477L240.345 130.481H235.188L230.006 130.558H225.052C225.103 129.49 225.128 128.423 225.179 127.356L225.205 127.407ZM224.976 133.556H230.031L235.214 133.632H245.528L250.71 133.709L261.049 133.759H266.232L271.389 133.836H281.728L286.885 133.912H292.068L297.224 133.963H302.407L307.564 134.013L317.903 134.064L323.06 134.115H327.455V137.19H321.561L316.404 137.114H306.065L300.908 137.037H295.726L290.569 136.986L275.072 136.91H269.89L264.733 136.834H259.576L254.394 136.783H249.262L244.105 136.732L233.766 136.682H228.583L225.027 136.631C225.027 135.589 225.027 134.598 225.078 133.556H224.976ZM224.951 139.502L233.664 139.655L238.821 139.756L249.16 139.934L254.292 140.036L259.474 140.163L269.814 140.341L274.996 140.468L285.335 140.62L290.492 140.722L295.649 140.849L300.832 140.95L311.171 141.128L316.354 141.23L321.51 141.332L326.667 141.433H327.404V144.864L323.009 144.762L317.852 144.66L307.513 144.482L302.356 144.355L297.174 144.254L286.834 144.101L281.677 143.974L276.546 143.873L271.363 143.771L266.206 143.669L261.024 143.568L250.685 143.39L245.502 143.288L240.371 143.187L235.214 143.085L230.031 142.983L225.052 142.856C225.001 141.738 224.951 140.595 224.951 139.477V139.502ZM350.268 48.2794H378.593C405.851 48.2794 427.902 70.31 427.902 97.5752C427.902 124.84 405.851 146.896 378.593 146.896H350.268V48.2794ZM350.268 205.924V150.301H393.53C409.281 195.684 431.839 221.399 460.952 239.237C458.589 240.304 456.227 241.321 453.864 242.388C429.223 254.178 401.405 267.315 356.034 267.315C286.479 267.315 229.523 213.751 225.205 146.236L230.031 146.414L235.214 146.617L240.371 146.795L245.502 146.998L261.024 147.583L266.206 147.786L276.546 148.167L281.677 148.37L286.834 148.548L292.017 148.726L302.356 149.107L307.513 149.31L312.67 149.514L317.827 149.692L322.984 149.895L327.379 150.047V205.848H350.217L350.268 205.924ZM230.031 120.139L235.214 120.012L240.371 119.911L245.502 119.784L250.685 119.657L255.842 119.53L276.546 119.098L281.677 118.971L307.538 118.437L312.695 118.31L317.852 118.208L327.404 118.005V121.944L317.852 122.147L312.695 122.249L307.538 122.35L302.381 122.477L281.677 122.884L276.546 122.985L271.363 123.112L250.685 123.544L245.502 123.672L240.371 123.799L235.214 123.9L230.031 124.002L225.408 124.103C225.51 122.808 225.611 121.461 225.764 120.165L230.031 120.063V120.139ZM524.436 77.5011C535.944 77.5011 545.953 80.3471 554.565 86.0135C563.151 91.7054 569.858 99.6334 574.634 109.772C577.911 116.684 580.045 124.408 581.087 132.895C578.699 130.583 576.336 128.271 573.973 125.908C556.75 109.086 539.983 92.6964 523.09 77.552C523.522 77.552 523.953 77.5011 524.411 77.5011H524.436ZM574.659 180.819C569.858 190.958 563.151 198.886 554.59 204.552C545.978 210.244 535.944 213.09 524.461 213.09C512.979 213.09 503.122 210.244 494.51 204.552C485.924 198.886 479.217 190.958 474.441 180.819C469.615 170.68 467.227 158.839 467.227 145.296C467.227 131.752 469.615 119.936 474.441 109.772C479.243 99.6334 485.949 91.7054 494.51 86.0135C501.471 81.4143 509.321 78.7462 518.06 77.8315C535.893 93.6366 553.498 110.814 571.382 128.271C574.812 131.625 578.216 134.979 581.645 138.333C581.798 140.595 581.899 142.932 581.899 145.296C581.899 158.839 579.486 170.68 574.685 180.819H574.659ZM648.33 204.552C640.455 199.343 634.206 192.228 629.481 183.284C640.684 193.143 652.141 202.596 663.928 211.388C658.314 209.99 653.106 207.729 648.33 204.578V204.552ZM671.753 212.734C655.952 201.351 640.76 188.722 626.026 175.483C622.723 166.564 621.047 156.552 621.047 145.296C621.047 131.777 623.435 119.936 628.261 109.772C633.063 99.6334 639.769 91.7054 648.33 86.0135C656.917 80.3471 666.901 77.5011 678.256 77.5011C689.612 77.5011 699.799 80.3471 708.385 86.0135C716.997 91.7054 723.704 99.6334 728.479 109.772C733.281 119.911 735.694 131.752 735.694 145.296C735.694 158.839 733.281 170.68 728.479 180.819C723.678 190.958 716.971 198.886 708.385 204.552C699.799 210.244 689.739 213.09 678.256 213.09C676.021 213.09 673.887 212.963 671.753 212.734ZM928.661 214.03C926.477 214.03 924.419 213.852 922.437 213.522C931.354 197.92 936.435 179.65 936.435 159.475C936.435 153.884 936.003 148.345 935.165 142.958C951.88 153.783 967.047 164.099 967.047 180.844C967.047 188.493 962.753 214.005 928.661 214.005V214.03Z" fill="#C48F41"/>
</g>
<defs>
<clipPath id="clip0_473_322">
<rect width="983" height="271" fill="white"/>
</clipPath>
</defs>
</svg>
