<svg width="647" height="59" viewBox="0 0 647 59" fill="none" xmlns="http://www.w3.org/2000/svg">
<g clip-path="url(#clip0_532_423)">
<path d="M86.1916 31.2545C85.0155 32.2253 84.5463 32.4172 84.7971 31.8102C88.0725 34.3229 91.5663 35.2959 95.2935 34.6889C95.7973 34.6019 96.167 35.1754 95.8989 35.6262C93.7823 39.2146 92.7251 43.1667 92.7402 47.4848C92.7402 48.335 93.5964 48.8706 94.3358 48.4912C97.9463 46.5676 100.735 43.7938 102.683 40.1518C102.969 39.614 103.388 39.4578 103.944 39.7189C104.43 39.9443 104.683 40.4308 104.666 41.1404C104.666 41.7117 104.867 42.1803 105.271 42.5441L111.418 48.2658C112.442 49.2187 114.088 48.4912 114.105 47.0519C114.155 42.8565 112.963 38.9557 110.494 35.3316C110.276 35.0013 110.529 34.5684 110.914 34.6197C115.197 35.191 119.296 34.2047 123.224 31.6897C122.586 31.6205 122.502 30.98 122.956 29.7817C119.882 27.9607 116.053 26.6954 111.435 25.9858C111.251 25.9679 111.149 25.7604 111.234 25.5863C113.065 21.9979 114.038 18.3047 114.157 14.4909C114.191 13.4331 113.1 12.7235 112.174 13.2256C108.194 15.4282 105.457 18.2712 103.961 21.7212C103.81 22.0671 103.356 22.1028 103.172 21.7725C101.072 17.9075 98.2165 15.0287 94.5714 13.1207C93.832 12.7213 92.9262 13.2412 92.8743 14.1093C92.5716 18.356 93.4796 22.1363 95.5789 25.4122C95.914 25.9501 96.0826 26.5213 96.0826 27.1462C96.0999 28.619 96.8545 29.313 98.383 29.2082C99.1894 29.1568 99.8445 29.3978 100.366 29.9714C101.021 30.6989 100.904 31.2724 100.03 31.6696C95.4795 33.8186 90.8593 33.6802 86.1916 31.2545ZM102.618 27.9607C102.653 28.2218 102.45 28.4472 102.199 28.4628C101.343 28.5141 100.571 28.2731 99.8812 27.6996C96.0848 24.562 94.2385 20.505 94.3552 15.4951C94.3725 15.1135 94.7746 14.8703 95.0946 15.08C99.4791 17.8182 101.998 22.1184 102.618 27.9607ZM104.925 28.3646C103.794 27.7018 104.432 24.2853 106.367 20.746C108.296 17.1956 110.799 14.8725 111.934 15.5264C113.065 16.1891 112.427 19.6057 110.492 23.145C108.564 26.6954 106.06 29.0185 104.925 28.3646ZM106.095 30.7859C106.095 29.4849 109.303 28.4271 113.266 28.4271C117.229 28.4271 120.437 29.4849 120.437 30.7859C120.437 32.0869 117.229 33.1447 113.266 33.1447C109.303 33.1447 106.095 32.0869 106.095 30.7859ZM94.6039 46.311C93.4818 45.6437 94.2709 42.0911 96.3659 38.3688C98.4522 34.6532 101.055 32.1739 102.169 32.8434C103.291 33.5106 102.502 37.0633 100.407 40.7856C98.3203 44.5012 95.7173 46.9804 94.6039 46.311ZM112.315 46.4136C111.184 47.0831 108.613 44.673 106.579 41.0199C104.551 37.3735 103.812 33.8543 104.949 33.1893C106.08 32.5198 108.65 34.9299 110.685 38.583C112.713 42.2294 113.452 45.7486 112.315 46.4136Z" fill="#C48F41"/>
<path d="M84.7971 31.8102C84.5442 32.4172 85.0155 32.2252 86.1916 31.2545C86.1743 30.9242 86.2262 30.614 86.3754 30.3351C86.4921 30.1276 86.6953 29.9356 87.0131 29.7794C89.9188 28.3579 92.5889 27.9071 95.0579 28.4271C95.4103 28.5141 95.6956 28.0968 95.4946 27.7688C95.1746 27.231 94.7898 26.8315 94.3185 26.5727C93.9985 26.383 93.5964 26.3294 93.1099 26.3986C90.6582 26.7289 88.3233 27.4207 86.09 28.4606C83.2859 29.7772 81.4547 29.5183 78.5663 29.5362C59.7376 29.6232 40.6754 29.6567 21.4101 29.6411C18.6881 29.6232 16.9261 27.7866 14.6236 27.1975C9.50188 25.8965 4.81471 22.953 0.566422 25.9523C-0.205399 26.5079 -0.190269 27.6862 0.61615 28.2062C6.82967 32.1583 13.0454 35.952 19.2438 32.0177C19.7302 31.7231 20.2512 31.5669 20.8047 31.5669L84.7971 31.8102ZM2.7176 26.8895C2.7176 25.6242 6.0773 24.6022 10.2088 24.6022C14.3404 24.6022 17.7001 29.4179 17.7001 30.6832C17.7001 31.9485 14.3404 29.1769 10.2088 29.1769C6.0773 29.1769 2.7176 28.1548 2.7176 26.8895Z" fill="#C48F41"/>
<path d="M122.958 29.7817C122.504 30.9778 122.589 31.6182 123.226 31.6897L185.32 31.741C185.874 31.741 186.412 31.8793 186.899 32.1561C192.911 35.5547 198.976 35.6574 205.105 32.4863C206.449 31.7923 206.482 29.8174 205.139 29.0876C199.077 25.8295 193.013 25.9143 186.916 29.3643C186.43 29.6411 185.891 29.7794 185.338 29.7794H122.958M189.03 30.7011C189.03 29.4001 192.338 28.3601 196.437 28.3601C200.536 28.3601 203.844 29.4001 203.844 30.7011C203.844 32.0021 200.536 33.042 196.437 33.042C192.338 33.042 189.03 32.0021 189.03 30.7011Z" fill="#C48F41"/>
</g>
<g clip-path="url(#clip1_532_423)">
<path d="M560.364 31.2545C561.54 32.2253 562.009 32.4172 561.759 31.8102C558.483 34.3229 554.989 35.2959 551.262 34.6889C550.758 34.6019 550.389 35.1754 550.657 35.6262C552.773 39.2146 553.831 43.1667 553.815 47.4848C553.815 48.335 552.959 48.8706 552.22 48.4912C548.609 46.5676 545.821 43.7938 543.873 40.1518C543.587 39.614 543.168 39.4578 542.612 39.7189C542.126 39.9443 541.873 40.4308 541.89 41.1404C541.89 41.7117 541.689 42.1803 541.285 42.5441L535.138 48.2658C534.113 49.2187 532.468 48.4912 532.451 47.0519C532.401 42.8565 533.592 38.9557 536.061 35.3316C536.28 35.0013 536.027 34.5684 535.642 34.6197C531.359 35.191 527.26 34.2047 523.332 31.6897C523.969 31.6205 524.054 30.98 523.6 29.7817C526.674 27.9607 530.503 26.6954 535.121 25.9858C535.305 25.9679 535.406 25.7604 535.322 25.5863C533.491 21.9979 532.518 18.3047 532.399 14.4909C532.364 13.4331 533.456 12.7235 534.381 13.2256C538.362 15.4282 541.099 18.2712 542.595 21.7212C542.746 22.0671 543.2 22.1028 543.384 21.7725C545.483 17.9075 548.339 15.0287 551.984 13.1207C552.724 12.7213 553.63 13.2412 553.681 14.1093C553.984 18.356 553.076 22.1363 550.977 25.4122C550.642 25.9501 550.473 26.5213 550.473 27.1462C550.456 28.619 549.701 29.313 548.173 29.2082C547.366 29.1568 546.711 29.3978 546.19 29.9714C545.535 30.6989 545.652 31.2724 546.525 31.6696C551.076 33.8186 555.696 33.6802 560.364 31.2545ZM543.937 27.9607C543.903 28.2218 544.106 28.4472 544.357 28.4628C545.213 28.5141 545.985 28.2731 546.674 27.6996C550.471 24.562 552.317 20.505 552.2 15.4951C552.183 15.1135 551.781 14.8703 551.461 15.08C547.077 17.8182 544.558 22.1184 543.937 27.9607ZM541.631 28.3646C542.761 27.7018 542.124 24.2853 540.189 20.746C538.26 17.1956 535.756 14.8725 534.621 15.5264C533.491 16.1891 534.129 19.6057 536.063 23.145C537.992 26.6954 540.496 29.0185 541.631 28.3646ZM540.461 30.7859C540.461 29.4849 537.253 28.4271 533.29 28.4271C529.327 28.4271 526.118 29.4849 526.118 30.7859C526.118 32.0869 529.327 33.1447 533.29 33.1447C537.253 33.1447 540.461 32.0869 540.461 30.7859ZM551.952 46.311C553.074 45.6437 552.285 42.0911 550.19 38.3688C548.104 34.6532 545.501 32.1739 544.387 32.8434C543.265 33.5106 544.054 37.0633 546.149 40.7856C548.235 44.5012 550.838 46.9804 551.952 46.311ZM534.241 46.4136C535.372 47.0831 537.942 44.673 539.977 41.0199C542.005 37.3735 542.744 33.8543 541.607 33.1893C540.476 32.5198 537.905 34.9299 535.871 38.583C533.843 42.2294 533.104 45.7486 534.241 46.4136Z" fill="#C48F41"/>
<path d="M561.759 31.8102C562.012 32.4172 561.54 32.2252 560.364 31.2545C560.381 30.9242 560.33 30.614 560.18 30.3351C560.064 30.1276 559.86 29.9356 559.543 29.7794C556.637 28.3579 553.967 27.9071 551.498 28.4271C551.145 28.5141 550.86 28.0968 551.061 27.7688C551.381 27.231 551.766 26.8315 552.237 26.5727C552.557 26.383 552.959 26.3294 553.446 26.3986C555.897 26.7289 558.232 27.4207 560.466 28.4606C563.27 29.7772 565.101 29.5183 567.989 29.5362C586.818 29.6232 605.88 29.6567 625.146 29.6411C627.868 29.6232 629.63 27.7866 631.932 27.1975C637.054 25.8965 641.741 22.953 645.989 25.9523C646.761 26.5079 646.746 27.6862 645.94 28.2062C639.726 32.1583 633.51 35.952 627.312 32.0177C626.826 31.7231 626.304 31.5669 625.751 31.5669L561.759 31.8102ZM643.838 26.8895C643.838 25.6242 640.478 24.6022 636.347 24.6022C632.215 24.6022 628.856 29.4179 628.856 30.6832C628.856 31.9485 632.215 29.1769 636.347 29.1769C640.478 29.1769 643.838 28.1548 643.838 26.8895Z" fill="#C48F41"/>
<path d="M523.598 29.7817C524.052 30.9778 523.967 31.6182 523.329 31.6897L461.235 31.741C460.682 31.741 460.143 31.8793 459.657 32.1561C453.645 35.5547 447.58 35.6574 441.451 32.4863C440.106 31.7923 440.074 29.8174 441.416 29.0876C447.479 25.8295 453.543 25.9143 459.64 29.3643C460.126 29.6411 460.664 29.7794 461.218 29.7794H523.598M457.525 30.7011C457.525 29.4001 454.217 28.3601 450.118 28.3601C446.019 28.3601 442.711 29.4001 442.711 30.7011C442.711 32.0021 446.019 33.042 450.118 33.042C454.217 33.042 457.525 32.0021 457.525 30.7011Z" fill="#C48F41"/>
</g>
<g clip-path="url(#clip2_532_423)">
<path d="M344.122 33.1842C346.38 30.421 349.282 29.05 352.845 29.0854C379.083 29.3544 406.815 29.4016 436.052 29.227C438.251 29.2152 440.461 29.3686 442.671 29.6848C442.858 29.7202 442.906 29.8145 442.825 29.9774L442.626 30.3643C442.567 30.4823 442.472 30.539 442.344 30.539C440.193 30.598 438.149 30.6334 436.208 30.6451C411.11 30.867 383.636 30.867 353.814 30.6569C349.607 30.6216 346.702 31.9217 344.634 35.4353C344.435 35.7869 344.4 36.1503 344.528 36.5231C346.338 41.5587 350.37 54.6596 344.21 57.7154C341.483 59.0628 339.496 58.3242 338.261 55.4784C336.333 51.0045 339.718 43.3945 341.576 38.7577C341.739 38.3471 341.751 37.9271 341.611 37.4929L337.086 23.9106C336.911 23.3608 336.65 23.3136 336.321 23.7926L328.046 35.5722C327.634 36.1574 327.541 36.8959 327.764 37.5637C329.292 42.1179 333.9 56.9414 325.776 58.2298C320.415 59.084 320.062 52.9017 321.05 49.2135C321.967 45.8415 323.142 42.5969 324.566 39.4822C324.824 38.9206 324.859 38.2882 324.66 37.703L319.97 23.8398C319.887 23.5826 319.534 23.5354 319.37 23.7572L311.164 35.4424C310.704 36.0748 310.612 36.9054 310.894 37.6322C312.81 42.5497 315.291 51.7643 311.998 56.2854C310.482 58.369 306.343 59.5984 304.72 56.7881C302.121 52.3047 305.168 43.8617 307.577 39.3193C307.823 38.8521 307.871 38.3118 307.707 37.8091L303.675 25.9942C303.569 25.6898 303.171 25.6544 303.005 25.9234C299.465 31.8014 295.433 31.169 288.229 31.169C261.543 31.1926 234.858 31.1808 208.173 31.1454C206.796 31.1454 205.387 31.0038 203.918 30.7348C203.319 30.6286 203.307 30.4894 203.906 30.336C205.399 29.949 206.915 29.7508 208.467 29.7508C237.703 29.6918 266.045 29.6564 293.472 29.6682C297.88 29.6682 303.687 25.7229 302.346 20.5693C300.818 14.7031 300.065 5.5004 304.72 0.757437C305.684 -0.22655 307.295 -0.179356 308.2 0.863623C311.763 4.98598 308.025 14.3516 305.907 18.6249C305.53 19.3871 305.518 20.6849 305.743 21.4943C306.978 25.9093 308.271 29.9844 309.633 33.7175C310.034 34.8053 310.479 34.8171 310.962 33.7646C311.209 33.2502 311.491 32.7689 311.82 32.3252C314.336 28.9297 316.745 25.5695 319.05 22.2329C319.321 21.8459 319.403 21.4141 319.297 20.9445C318.25 15.8971 316.051 2.04582 323.282 0.254825C324.492 -0.0495736 325.727 0.594619 326.174 1.75322C328.266 7.2324 325.035 14.3162 322.389 19.0473C322.19 19.4107 322.142 19.7859 322.27 20.1705L326.537 34.187C326.632 34.4914 327.041 34.5504 327.231 34.2932L335.989 22.1621C336.39 21.6241 336.518 20.9327 336.342 20.2885C334.767 14.2123 333.815 5.00722 339.259 0.488434C340.069 -0.191154 341.258 -0.167558 342.033 0.547426C346.501 4.63439 342.021 14.4695 339.493 18.7901C339.235 19.2243 339.176 19.6915 339.33 20.1823L343.267 33.0143C343.442 33.5995 343.736 33.6585 344.125 33.1771M304.225 5.69153C304.166 5.79772 304.142 5.90154 304.154 6.00773L304.613 16.5697C304.625 16.8859 304.86 17.1313 305.165 17.1785C305.471 17.2139 305.765 17.0251 305.859 16.7207L308.892 6.58113C308.927 6.45135 308.927 6.31213 308.88 6.19414L307.388 1.92076C307.212 1.39455 306.483 1.33556 306.224 1.82637L304.225 5.68917M339.375 16.6522C341.374 13.1505 343.935 6.32392 342.279 3.02273C341.95 2.36674 341.374 2.08594 340.54 2.16853C340.024 2.21572 339.576 2.57911 339.425 3.08172C338.178 7.0507 337.968 11.5483 338.79 16.5461C338.884 17.1431 339.083 17.1785 339.377 16.6522M321.434 5.48152C321.327 5.6231 321.28 5.79771 321.28 5.97233L321.434 15.9373C321.434 16.3596 321.751 16.7089 322.175 16.7679C322.599 16.8269 322.997 16.5697 323.116 16.1591L325.961 6.39471C326.02 6.2083 326.008 6.01953 325.937 5.84491L324.798 2.88351C324.551 2.23932 323.67 2.13313 323.293 2.72069L321.436 5.48388M325.279 40.9357C323.926 44.0033 320.917 51.861 322.905 54.787C324.198 56.6724 327.148 55.9692 327.418 53.6992C327.899 49.6831 327.3 45.4333 325.644 40.9475C325.537 40.6431 325.409 40.6431 325.279 40.9357ZM341.784 41.1481C340.114 45.8439 339.327 49.9544 339.41 53.4656C339.422 53.8054 339.517 54.1334 339.704 54.4142C340.469 55.62 341.185 56.158 341.867 56.007C343.442 55.679 344.582 54.3316 344.653 52.753C344.828 48.994 344.205 45.1312 342.796 41.1504C342.455 40.2019 342.125 40.2019 341.784 41.1504M308.809 41.1717C308.738 40.9027 308.373 40.8791 308.257 41.1245C306.693 44.6852 304.308 52.1064 305.964 55.1292C306.563 56.217 307.691 56.2524 309.349 55.2118C309.996 54.813 310.432 54.1452 310.548 53.3972C311.159 49.44 309.866 44.9779 308.809 41.174V41.1717Z" fill="#C48F41"/>
</g>
<defs>
<clipPath id="clip0_532_423">
<rect width="206.13" height="35.7075" fill="white" transform="matrix(-1 0 0 1 206.13 12.9846)"/>
</clipPath>
<clipPath id="clip1_532_423">
<rect width="206.13" height="35.7075" fill="white" transform="translate(440.426 12.9846)"/>
</clipPath>
<clipPath id="clip2_532_423">
<rect width="239.402" height="58.4304" fill="white" transform="translate(203.458)"/>
</clipPath>
</defs>
</svg>
